<svg xmlns="http://www.w3.org/2000/svg" xmlns:xlink="http://www.w3.org/1999/xlink" width="250" height="50" viewBox="0 0 250 50">
  <defs>
    <clipPath id="clip-_00_logo3_shop__grey">
      <rect width="250" height="50"/>
    </clipPath>
  </defs>
  <g id="_00_logo3_shop__grey" data-name="00_logo3_shop _grey" clip-path="url(#clip-_00_logo3_shop__grey)">
    <g id="그룹_13504" data-name="그룹 13504" transform="translate(3 2)">
      <g id="그룹_12942" data-name="그룹 12942">
        <g id="그룹_12940" data-name="그룹 12940" transform="translate(73.402 6.016)">
          <path id="패스_28515" data-name="패스 28515" d="M822.14,257a3.223,3.223,0,0,0-3.367-2.63c-1.779-.077-3.21.541-3.21,1.585s.735,1.509,2.012,1.9c1.045.31,2.051.58,3.559.967,4.449,1.122,6.577,2.747,6.577,6.306,0,4.333-3.714,6.771-8.472,6.771-5.263,0-8.783-2.09-9.6-6.848l5.377-.813c.426,2.05,2.09,3.133,4.333,3.133,1.664,0,2.98-.657,2.98-2.011,0-1.083-.851-1.624-2.36-2.051-1.972-.541-3.714-1.006-5.184-1.432a5.582,5.582,0,0,1-4.45-5.647c0-4.257,3.948-6.384,8.281-6.384,4.487,0,8.317,2.05,8.9,6.19Z" transform="translate(-809.644 -242.875)" fill="#888"/>
          <path id="패스_28516" data-name="패스 28516" d="M847.306,262.153v10.1h-5.339v-9.866c0-2.166-.311-4.333-1.393-5.494a4.112,4.112,0,0,0-3.289-1.2,4.4,4.4,0,0,0-2.475.813,4.305,4.305,0,0,0-1.548,2.669,23.727,23.727,0,0,0-.232,3.986v9.091h-5.3V244.394h4.642v9.131a2.37,2.37,0,0,0,.272-.308,7.561,7.561,0,0,1,5.376-2.438,8.718,8.718,0,0,1,7,2.243C847.306,255.266,847.306,258.9,847.306,262.153Z" transform="translate(-806.522 -243.815)" fill="#888"/>
          <path id="패스_28517" data-name="패스 28517" d="M846.772,260.864c0-6.537,4.372-11.025,10.563-11.025,6.3,0,10.6,4.565,10.6,11.025,0,6.5-4.333,11.027-10.6,11.027C851.027,271.891,846.772,267.325,846.772,260.864Zm10.563-6.112c-3.444,0-4.992,2.477-4.992,6.112,0,3.753,1.7,6.114,4.992,6.114,3.365,0,5.028-2.515,5.028-6.114C862.363,257.151,860.661,254.752,857.335,254.752Z" transform="translate(-803.236 -242.875)" fill="#888"/>
          <path id="패스_28518" data-name="패스 28518" d="M887.422,260.864c0,6.269-3.868,11.027-9.633,11.027a9.211,9.211,0,0,1-4.991-1.316v10.02h-5.3V250.418h4.642v1.161a8.38,8.38,0,0,1,5.377-1.74C883.515,249.839,887.422,254.481,887.422,260.864Zm-5.57,0c0-3.481-1.586-6.344-5.108-6.344-3.288,0-4.6,2.553-4.6,6.344s1.277,6.346,4.8,6.346C880.343,267.21,881.852,264.385,881.852,260.864Z" transform="translate(-799.659 -242.875)" fill="#888"/>
          <path id="패스_28519" data-name="패스 28519" d="M905.285,250.333,897.7,271.225H892.44l-7.582-20.892h5.261l4.952,14.47,4.952-14.47Z" transform="translate(-796.663 -242.79)" fill="#888"/>
          <path id="패스_28520" data-name="패스 28520" d="M909.887,243.9v4.642h-5.26V243.9Zm0,7.543v20.892h-5.26V251.443Z" transform="translate(-793.25 -243.9)" fill="#888"/>
          <path id="패스_28521" data-name="패스 28521" d="M922.683,266.978a4.524,4.524,0,0,0,4.333-2.631l5.262,1.509a9.993,9.993,0,0,1-9.285,6.035c-6.538,0-10.871-4.527-10.871-10.755,0-6.771,4.217-11.3,10.562-11.3,6.848,0,10.368,5.223,9.789,12.5H917.809C918.2,265.236,919.859,266.978,922.683,266.978Zm-4.72-8.7h9.17c-.349-2.477-1.47-3.87-4.45-3.87A4.407,4.407,0,0,0,917.964,258.273Z" transform="translate(-791.957 -242.875)" fill="#888"/>
          <path id="패스_28522" data-name="패스 28522" d="M960.019,250.339l-6.382,20.892h-4.371l-4.218-13.618-4.566,13.618H936.46l-6.385-20.93,5.185.038,3.791,12.458,3.831-12.458h4.371l3.83,12.458,3.791-12.458Z" transform="translate(-788.858 -242.795)" fill="#888"/>
        </g>
        <g id="그룹_12941" data-name="그룹 12941">
          <path id="패스_28523" data-name="패스 28523" d="M800.127,283.842a250.679,250.679,0,0,1-45.494,0,7.9,7.9,0,0,1-7.166-7.424,253.031,253.031,0,0,1,0-29.192,7.9,7.9,0,0,1,7.166-7.423,250.571,250.571,0,0,1,45.494,0,7.9,7.9,0,0,1,7.166,7.424,253.086,253.086,0,0,1,0,29.192,7.9,7.9,0,0,1-7.166,7.424" transform="translate(-747.046 -238.769)" fill="#888"/>
          <path id="패스_28524" data-name="패스 28524" d="M794.5,254.114a3.7,3.7,0,0,0-3.541-3.692l.007,0-30.439.067h-.178l.007,0a3.7,3.7,0,0,0-3.525,3.708l.027,12.523a2.49,2.49,0,0,0,3.784,2.122l1.871-1.136-.014-6.513a.646.646,0,0,1,.645-.648l3.152-.007a.647.647,0,0,1,.647.646l.009,3.825,8.725-5.3,15.075,9.07a2.491,2.491,0,0,0,3.776-2.139Z" transform="translate(-745.357 -236.759)" fill="#fff"/>
        </g>
      </g>
    </g>
  </g>
</svg>
