<svg xmlns="http://www.w3.org/2000/svg" xmlns:xlink="http://www.w3.org/1999/xlink" width="220" height="50" viewBox="0 0 220 50">
  <defs>
    <clipPath id="clip-_00_logo1_zip">
      <rect width="220" height="50"/>
    </clipPath>
  </defs>
  <g id="_00_logo1_zip" data-name="00_logo1_zip" clip-path="url(#clip-_00_logo1_zip)">
    <g id="그룹_13499" data-name="그룹 13499" transform="translate(12 -2)">
      <g id="그룹_12938" data-name="그룹 12938" transform="translate(-6 4)">
        <g id="그룹_12936" data-name="그룹 12936">
          <path id="패스_28506" data-name="패스 28506" d="M136.689,286.812a250.668,250.668,0,0,1-45.494,0,7.9,7.9,0,0,1-7.166-7.424,253.068,253.068,0,0,1,0-29.191,7.9,7.9,0,0,1,7.166-7.424,250.564,250.564,0,0,1,45.494,0,7.9,7.9,0,0,1,7.166,7.424,253.075,253.075,0,0,1,0,29.191,7.9,7.9,0,0,1-7.166,7.424" transform="translate(-83.608 -241.739)" fill="red"/>
          <path id="패스_28507" data-name="패스 28507" d="M131.06,257.083a3.7,3.7,0,0,0-3.541-3.692l.007,0-30.439.066h-.178l.007,0a3.7,3.7,0,0,0-3.525,3.708l.027,12.523a2.491,2.491,0,0,0,3.784,2.124l1.871-1.137-.014-6.513a.645.645,0,0,1,.645-.647l3.152-.007a.647.647,0,0,1,.648.645l.008,3.825,8.725-5.3,15.075,9.07a2.491,2.491,0,0,0,3.776-2.14Z" transform="translate(-81.919 -239.728)" fill="#fff"/>
        </g>
        <g id="그룹_12937" data-name="그룹 12937" transform="translate(72.701 5.066)">
          <path id="패스_28508" data-name="패스 28508" d="M163.6,273.388H145.608v-.658l10.253-15.67h-9.092v-4.566h17.218v.658l-10.216,15.67H163.6Z" transform="translate(-145.608 -244.948)"/>
          <path id="패스_28509" data-name="패스 28509" d="M169.553,246.059V250.7H164.29v-4.643Zm0,7.546V274.5H164.29V253.6Z" transform="translate(-142.384 -246.059)"/>
          <path id="패스_28510" data-name="패스 28510" d="M192.7,263.026c0,6.269-3.868,11.028-9.634,11.028a9.212,9.212,0,0,1-4.992-1.316v8.27h-5.3V252.579h4.643v1.161A8.382,8.382,0,0,1,182.8,252C188.8,252,192.7,256.642,192.7,263.026Zm-5.571,0c0-3.483-1.587-6.345-5.108-6.345-3.289,0-4.6,2.553-4.6,6.345s1.277,6.346,4.8,6.346C185.624,269.372,187.133,266.547,187.133,263.026Z" transform="translate(-140.919 -245.034)"/>
          <path id="패스_28511" data-name="패스 28511" d="M210.57,252.494l-7.583,20.894h-5.262l-7.584-20.894H195.4l4.953,14.471,4.953-14.471Z" transform="translate(-137.922 -244.948)"/>
          <path id="패스_28512" data-name="패스 28512" d="M215.175,246.059V250.7h-5.263v-4.643Zm0,7.546V274.5h-5.263V253.6Z" transform="translate(-134.51 -246.059)"/>
          <path id="패스_28513" data-name="패스 28513" d="M227.972,269.14a4.526,4.526,0,0,0,4.334-2.631l5.263,1.509a9.994,9.994,0,0,1-9.287,6.036c-6.538,0-10.872-4.527-10.872-10.757,0-6.771,4.218-11.3,10.563-11.3,6.849,0,10.37,5.224,9.79,12.5H223.1C223.484,267.4,225.148,269.14,227.972,269.14Zm-4.72-8.705h9.17c-.348-2.477-1.47-3.87-4.45-3.87A4.408,4.408,0,0,0,223.252,260.435Z" transform="translate(-133.216 -245.034)"/>
          <path id="패스_28514" data-name="패스 28514" d="M265.315,252.5l-6.385,20.894h-4.373l-4.218-13.621-4.566,13.621h-4.023l-6.385-20.933,5.185.039,3.791,12.459,3.831-12.459h4.373l3.831,12.459,3.792-12.459Z" transform="translate(-130.117 -244.954)"/>
        </g>
      </g>
    </g>
  </g>
</svg>
