<svg id="그룹_13409" data-name="그룹 13409" xmlns="http://www.w3.org/2000/svg" width="112.255" height="103.302" viewBox="0 0 112.255 103.302">
  <path id="패스_28679" data-name="패스 28679" d="M1337.756,321.986a51.857,51.857,0,0,1-12.982-1.646,3,3,0,1,1,1.5-5.814,45.672,45.672,0,1,0-23.305-14.632,3,3,0,1,1-4.575,3.892,51.653,51.653,0,1,1,39.358,18.2Z" transform="translate(-1277.152 -218.684)" fill="#c07fff"/>
  <path id="패스_28680" data-name="패스 28680" d="M1343.291,310.907a35.055,35.055,0,0,1-33.261-46.128,2.627,2.627,0,1,1,4.985,1.662,29.781,29.781,0,1,0,15.639-17.565,2.627,2.627,0,0,1-2.225-4.76,35.036,35.036,0,1,1,14.863,66.791Z" transform="translate(-1282.666 -224.202)" fill="#e0bfff" opacity="0.51"/>
  <g id="그룹_13402" data-name="그룹 13402" transform="translate(0 24.769)">
    <ellipse id="타원_15104" data-name="타원 15104" cx="11.58" cy="11.58" rx="11.58" ry="11.58" transform="translate(0.375 0.376)" fill="#8200ff"/>
    <path id="패스_28681" data-name="패스 28681" d="M1286.135,275.59a11.956,11.956,0,1,1,11.956-11.956A11.969,11.969,0,0,1,1286.135,275.59Zm0-23.161a11.205,11.205,0,1,0,11.205,11.205A11.218,11.218,0,0,0,1286.135,252.429Z" transform="translate(-1274.179 -251.678)" fill="#8200ff"/>
  </g>
  <g id="그룹_13405" data-name="그룹 13405" transform="translate(83.406 4.529)">
    <g id="그룹_13403" data-name="그룹 13403">
      <ellipse id="타원_15105" data-name="타원 15105" cx="11.58" cy="11.58" rx="11.58" ry="11.58" fill="#a140ff"/>
    </g>
    <g id="그룹_13404" data-name="그룹 13404" transform="translate(4.439 7.73)">
      <path id="패스_28682" data-name="패스 28682" d="M1396.46,242.59l-3.266-3.3,3.3-3.267-.995-1.005-4.308,4.261,4.261,4.308Zm3.714.02,3.3-3.266-3.266-3.3,1.005-.995,4.261,4.308-4.308,4.261Z" transform="translate(-1391.194 -235.015)" fill="#fff"/>
    </g>
  </g>
  <path id="패스_28683" data-name="패스 28683" d="M1281.531,266.358a2.329,2.329,0,0,1,2.327-2.327h3V262.6h-3a3.754,3.754,0,0,0,0,7.507h3v-1.426h-3A2.329,2.329,0,0,1,1281.531,266.358Zm3.078.751h6.006v-1.5h-6.006Zm6.757-4.5h-3v1.426h3a2.327,2.327,0,0,1,0,4.654h-3v1.426h3a3.754,3.754,0,0,0,0-7.507Z" transform="translate(-1275.656 -229.633)" fill="#fff"/>
  <g id="그룹_13406" data-name="그룹 13406" transform="translate(45.529 35.599)">
    <path id="패스_28684" data-name="패스 28684" d="M1350.026,279.967a6.682,6.682,0,1,0-6.681-6.681A6.661,6.661,0,0,0,1350.026,279.967Zm0,2.157c-4.891,0-14.7,2.459-14.7,7.349v6.014h29.4v-6.014C1364.725,284.583,1354.917,282.124,1350.026,282.124Z" transform="translate(-1334.951 -266.229)" fill="#8200ff"/>
    <path id="패스_28685" data-name="패스 28685" d="M1364.976,295.738h-30.15V289.35c0-5.073,9.814-7.726,15.075-7.726s15.075,2.653,15.075,7.726Zm-29.4-.751h28.649V289.35c0-4.513-9.463-6.975-14.324-6.975s-14.324,2.462-14.324,6.975Zm14.324-14.77a7.057,7.057,0,1,1,7.031-7.057A7.064,7.064,0,0,1,1349.9,280.218Zm0-13.363a6.306,6.306,0,1,0,6.28,6.307A6.314,6.314,0,0,0,1349.9,266.855Z" transform="translate(-1334.826 -266.104)" fill="#8200ff"/>
  </g>
  <g id="그룹_13408" data-name="그룹 13408" transform="translate(76.265 79.949)">
    <ellipse id="타원_15106" data-name="타원 15106" cx="11.58" cy="11.58" rx="11.58" ry="11.58" fill="#6d5ffa"/>
    <g id="그룹_13407" data-name="그룹 13407" transform="translate(7.478 7.025)">
      <ellipse id="타원_15107" data-name="타원 15107" cx="1.318" cy="1.318" rx="1.318" ry="1.318" transform="translate(0 6.77)" fill="#fff"/>
      <path id="패스_28686" data-name="패스 28686" d="M1385.73,334.538v1.711a7.694,7.694,0,0,1,7.694,7.694h1.711A9.408,9.408,0,0,0,1385.73,334.538Zm0,3.421v1.711a4.277,4.277,0,0,1,4.273,4.273h1.71A5.982,5.982,0,0,0,1385.73,337.959Z" transform="translate(-1385.73 -334.538)" fill="#fff"/>
    </g>
  </g>
</svg>
