<svg id="그룹_13440" data-name="그룹 13440" xmlns="http://www.w3.org/2000/svg" width="112.255" height="103.302" viewBox="0 0 112.255 103.302">
  <path id="패스_28700" data-name="패스 28700" d="M1337.756,483.872a51.857,51.857,0,0,1-12.982-1.646,3,3,0,1,1,1.5-5.814,45.672,45.672,0,1,0-23.305-14.632,3,3,0,0,1-4.575,3.891,51.652,51.652,0,1,1,39.358,18.2Z" transform="translate(-1277.152 -380.57)" fill="#eadbc4"/>
  <path id="패스_28701" data-name="패스 28701" d="M1343.291,472.793a35.056,35.056,0,0,1-33.261-46.128,2.627,2.627,0,1,1,4.985,1.662,29.781,29.781,0,1,0,15.639-17.565,2.627,2.627,0,0,1-2.225-4.76,35.036,35.036,0,1,1,14.863,66.791Z" transform="translate(-1282.666 -386.088)" fill="#f4ece1"/>
  <g id="그룹_13427" data-name="그룹 13427" transform="translate(0 24.769)">
    <ellipse id="타원_15121" data-name="타원 15121" cx="11.58" cy="11.58" rx="11.58" ry="11.58" transform="translate(0.375 0.375)" fill="#d5ba8c"/>
    <path id="패스_28702" data-name="패스 28702" d="M1286.135,437.476a11.956,11.956,0,1,1,11.956-11.956A11.969,11.969,0,0,1,1286.135,437.476Zm0-23.161a11.205,11.205,0,1,0,11.205,11.205A11.218,11.218,0,0,0,1286.135,414.315Z" transform="translate(-1274.179 -413.564)" fill="#d5ba8c"/>
  </g>
  <g id="그룹_13430" data-name="그룹 13430" transform="translate(83.406 4.529)">
    <g id="그룹_13428" data-name="그룹 13428">
      <ellipse id="타원_15122" data-name="타원 15122" cx="11.58" cy="11.58" rx="11.58" ry="11.58" fill="#e0c287"/>
    </g>
    <g id="그룹_13429" data-name="그룹 13429" transform="translate(4.439 7.731)">
      <path id="패스_28703" data-name="패스 28703" d="M1396.46,404.477l-3.266-3.3,3.3-3.267-.995-1.005-4.308,4.261,4.261,4.308Zm3.714.02,3.3-3.267-3.266-3.3,1.005-.995,4.261,4.308-4.308,4.261Z" transform="translate(-1391.194 -396.901)" fill="#fff"/>
    </g>
  </g>
  <path id="패스_28704" data-name="패스 28704" d="M1281.531,428.244a2.329,2.329,0,0,1,2.327-2.327h3V424.49h-3a3.754,3.754,0,0,0,0,7.507h3v-1.426h-3A2.329,2.329,0,0,1,1281.531,428.244Zm3.078.751h6.006v-1.5h-6.006Zm6.757-4.5h-3v1.426h3a2.327,2.327,0,0,1,0,4.654h-3V432h3a3.754,3.754,0,0,0,0-7.507Z" transform="translate(-1275.656 -391.519)" fill="#fff"/>
  <g id="그룹_13431" data-name="그룹 13431" transform="translate(45.529 35.599)">
    <path id="패스_28705" data-name="패스 28705" d="M1350.026,441.853a6.682,6.682,0,1,0-6.681-6.682A6.662,6.662,0,0,0,1350.026,441.853Zm0,2.157c-4.891,0-14.7,2.459-14.7,7.349v6.013h29.4V451.36C1364.725,446.469,1354.917,444.01,1350.026,444.01Z" transform="translate(-1334.951 -428.115)" fill="#906846"/>
    <path id="패스_28706" data-name="패스 28706" d="M1364.976,457.625h-30.15v-6.389c0-5.072,9.814-7.725,15.075-7.725s15.075,2.653,15.075,7.725Zm-29.4-.751h28.649v-5.639c0-4.513-9.463-6.974-14.324-6.974s-14.324,2.462-14.324,6.974ZM1349.9,442.1a7.057,7.057,0,1,1,7.031-7.057A7.065,7.065,0,0,1,1349.9,442.1Zm0-13.363a6.306,6.306,0,1,0,6.28,6.306A6.313,6.313,0,0,0,1349.9,428.741Z" transform="translate(-1334.826 -427.99)" fill="#906846"/>
  </g>
  <g id="그룹_13433" data-name="그룹 13433" transform="translate(76.265 79.949)">
    <ellipse id="타원_15123" data-name="타원 15123" cx="11.58" cy="11.58" rx="11.58" ry="11.58" fill="#906846"/>
    <g id="그룹_13432" data-name="그룹 13432" transform="translate(7.478 7.025)">
      <ellipse id="타원_15124" data-name="타원 15124" cx="1.318" cy="1.318" rx="1.318" ry="1.318" transform="translate(0 6.77)" fill="#fff"/>
      <path id="패스_28707" data-name="패스 28707" d="M1385.73,496.424v1.71a7.7,7.7,0,0,1,7.694,7.695h1.711A9.408,9.408,0,0,0,1385.73,496.424Zm0,3.421v1.711a4.277,4.277,0,0,1,4.273,4.273h1.71A5.982,5.982,0,0,0,1385.73,499.845Z" transform="translate(-1385.73 -496.424)" fill="#fff"/>
    </g>
  </g>
</svg>
