<svg id="그룹_13552" data-name="그룹 13552" xmlns="http://www.w3.org/2000/svg" width="112.255" height="103.302" viewBox="0 0 112.255 103.302">
  <path id="패스_28658" data-name="패스 28658" d="M1337.756,161.971a51.857,51.857,0,0,1-12.982-1.646,3,3,0,0,1,1.5-5.815,45.67,45.67,0,1,0-23.305-14.631,3,3,0,0,1-4.575,3.891,51.652,51.652,0,1,1,39.358,18.2Z" transform="translate(-1277.152 -58.669)" fill="#ff7f7f"/>
  <path id="패스_28659" data-name="패스 28659" d="M1343.291,150.892a35.056,35.056,0,0,1-33.261-46.128,2.627,2.627,0,1,1,4.985,1.662,29.781,29.781,0,1,0,15.639-17.565,2.627,2.627,0,0,1-2.225-4.76,35.036,35.036,0,1,1,14.863,66.791Z" transform="translate(-1282.666 -64.187)" fill="#ffbfbf" opacity="0.48"/>
  <g id="그룹_13372" data-name="그룹 13372" transform="translate(0 24.769)">
    <ellipse id="타원_15083" data-name="타원 15083" cx="11.58" cy="11.58" rx="11.58" ry="11.58" transform="translate(0.375 0.375)" fill="red"/>
    <path id="패스_28660" data-name="패스 28660" d="M1286.135,115.575a11.956,11.956,0,1,1,11.956-11.956A11.969,11.969,0,0,1,1286.135,115.575Zm0-23.161a11.205,11.205,0,1,0,11.205,11.205A11.218,11.218,0,0,0,1286.135,92.414Z" transform="translate(-1274.179 -91.663)" fill="red"/>
  </g>
  <g id="그룹_13375" data-name="그룹 13375" transform="translate(83.406 4.529)">
    <g id="그룹_13373" data-name="그룹 13373">
      <ellipse id="타원_15084" data-name="타원 15084" cx="11.58" cy="11.58" rx="11.58" ry="11.58" fill="#ffbfbf"/>
    </g>
    <g id="그룹_13374" data-name="그룹 13374" transform="translate(4.439 7.731)">
      <path id="패스_28661" data-name="패스 28661" d="M1396.46,82.575l-3.266-3.3,3.3-3.267L1395.5,75l-4.308,4.261,4.261,4.308Zm3.714.021,3.3-3.267-3.266-3.3,1.005-.994,4.261,4.308-4.308,4.261Z" transform="translate(-1391.194 -75)" fill="#fff"/>
    </g>
  </g>
  <path id="패스_28662" data-name="패스 28662" d="M1281.531,106.343a2.329,2.329,0,0,1,2.327-2.327h3v-1.426h-3a3.754,3.754,0,0,0,0,7.507h3V108.67h-3A2.329,2.329,0,0,1,1281.531,106.343Zm3.078.751h6.006v-1.5h-6.006Zm6.757-4.5h-3v1.426h3a2.327,2.327,0,0,1,0,4.654h-3V110.1h3a3.754,3.754,0,0,0,0-7.507Z" transform="translate(-1275.656 -69.618)" fill="#fff"/>
  <g id="그룹_13376" data-name="그룹 13376" transform="translate(45.529 35.599)">
    <path id="패스_28663" data-name="패스 28663" d="M1350.026,119.952a6.682,6.682,0,1,0-6.681-6.682A6.662,6.662,0,0,0,1350.026,119.952Zm0,2.157c-4.891,0-14.7,2.459-14.7,7.35v6.013h29.4v-6.013C1364.725,124.568,1354.917,122.109,1350.026,122.109Z" transform="translate(-1334.951 -106.214)" fill="red"/>
    <path id="패스_28664" data-name="패스 28664" d="M1364.976,135.723h-30.15v-6.389c0-5.072,9.814-7.725,15.075-7.725s15.075,2.653,15.075,7.725Zm-29.4-.751h28.649v-5.639c0-4.513-9.463-6.974-14.324-6.974s-14.324,2.462-14.324,6.974ZM1349.9,120.2a7.057,7.057,0,1,1,7.031-7.057A7.065,7.065,0,0,1,1349.9,120.2Zm0-13.363a6.306,6.306,0,1,0,6.28,6.306A6.313,6.313,0,0,0,1349.9,106.84Z" transform="translate(-1334.826 -106.089)" fill="red"/>
  </g>
  <g id="그룹_13378" data-name="그룹 13378" transform="translate(76.265 79.949)">
    <ellipse id="타원_15085" data-name="타원 15085" cx="11.58" cy="11.58" rx="11.58" ry="11.58" fill="#ff8340"/>
    <g id="그룹_13377" data-name="그룹 13377" transform="translate(7.478 7.025)">
      <ellipse id="타원_15086" data-name="타원 15086" cx="1.318" cy="1.318" rx="1.318" ry="1.318" transform="translate(0 6.77)" fill="#fff"/>
      <path id="패스_28665" data-name="패스 28665" d="M1385.73,174.523v1.71a7.7,7.7,0,0,1,7.694,7.695h1.711A9.408,9.408,0,0,0,1385.73,174.523Zm0,3.421v1.711a4.277,4.277,0,0,1,4.273,4.273h1.71A5.982,5.982,0,0,0,1385.73,177.944Z" transform="translate(-1385.73 -174.523)" fill="#fff"/>
    </g>
  </g>
</svg>
