<svg id="그룹_13438" data-name="그룹 13438" xmlns="http://www.w3.org/2000/svg" width="94.544" height="81.776" viewBox="0 0 94.544 81.776">
  <g id="그룹_13363" data-name="그룹 13363">
    <g id="그룹_13361" data-name="그룹 13361">
      <rect id="사각형_6086" data-name="사각형 6086" width="60.706" height="93.793" transform="translate(94.169 0.376) rotate(90)" fill="#fff"/>
      <path id="패스_28650" data-name="패스 28650" d="M1794.816,145.258h-94.544V83.8h94.544Zm-93.794-.751h93.043V84.552h-93.043Z" transform="translate(-1700.272 -83.801)" fill="red"/>
    </g>
    <g id="그룹_13362" data-name="그룹 13362" transform="translate(6.403 5.296)">
      <ellipse id="타원_15076" data-name="타원 15076" cx="1.032" cy="1.064" rx="1.032" ry="1.064" fill="red"/>
      <ellipse id="타원_15077" data-name="타원 15077" cx="1.032" cy="1.064" rx="1.032" ry="1.064" transform="translate(4.127)" fill="red"/>
      <ellipse id="타원_15078" data-name="타원 15078" cx="1.032" cy="1.064" rx="1.032" ry="1.064" transform="translate(8.254)" fill="red"/>
    </g>
  </g>
  <g id="그룹_13364" data-name="그룹 13364" transform="translate(20.862 17.747)">
    <path id="패스_28651" data-name="패스 28651" d="M1728.811,130.492l17.142-10.818,17.309,4.494,16.976-15.977" transform="translate(-1728.248 -107.628)" fill="#fff"/>
    <path id="패스_28652" data-name="패스 28652" d="M1728.625,130.868a.563.563,0,0,1-.3-1.039l17.142-10.818a.563.563,0,0,1,.442-.069l17.008,4.416,16.749-15.764a.563.563,0,0,1,.772.821l-16.976,15.977a.567.567,0,0,1-.528.135l-17.073-4.432-16.935,10.687A.559.559,0,0,1,1728.625,130.868Z" transform="translate(-1728.061 -107.441)" fill="red"/>
  </g>
  <g id="그룹_13365" data-name="그룹 13365" transform="translate(17.148 34.279)">
    <rect id="사각형_6087" data-name="사각형 6087" width="8.654" height="20.97" transform="translate(0 22.476)" fill="#ff7f7f"/>
    <rect id="사각형_6088" data-name="사각형 6088" width="8.654" height="31.664" transform="translate(17.198 11.781)" fill="red"/>
    <rect id="사각형_6089" data-name="사각형 6089" width="8.654" height="27.224" transform="translate(34.395 16.222)" fill="#ffbfbf"/>
    <rect id="사각형_6090" data-name="사각형 6090" width="8.654" height="43.446" transform="translate(51.593)" fill="#ff8340"/>
  </g>
  <g id="그룹_13366" data-name="그룹 13366" transform="translate(5.601 11.255)">
    <line id="선_3527" data-name="선 3527" x2="82.216" transform="translate(0.563 0.563)" fill="#fff"/>
    <path id="패스_28653" data-name="패스 28653" d="M1790.512,99.92H1708.3a.563.563,0,0,1,0-1.126h82.216a.563.563,0,0,1,0,1.126Z" transform="translate(-1707.733 -98.794)" fill="red"/>
  </g>
  <g id="그룹_13367" data-name="그룹 13367" transform="translate(18.865 38.051)">
    <ellipse id="타원_15079" data-name="타원 15079" cx="1.997" cy="1.997" rx="1.997" ry="1.997" transform="translate(0.563 0.563)" fill="red"/>
    <path id="패스_28654" data-name="패스 28654" d="M1727.961,139.608a2.56,2.56,0,1,1,2.56-2.561A2.563,2.563,0,0,1,1727.961,139.608Zm0-3.995a1.434,1.434,0,1,0,1.434,1.434A1.436,1.436,0,0,0,1727.961,135.613Z" transform="translate(-1725.401 -134.487)" fill="red"/>
  </g>
  <g id="그룹_13368" data-name="그룹 13368" transform="translate(36.007 27.233)">
    <ellipse id="타원_15080" data-name="타원 15080" cx="1.997" cy="1.997" rx="1.997" ry="1.997" transform="translate(0.563 0.563)" fill="red"/>
    <path id="패스_28655" data-name="패스 28655" d="M1750.8,125.2a2.56,2.56,0,1,1,2.56-2.561A2.563,2.563,0,0,1,1750.8,125.2Zm0-3.995a1.434,1.434,0,1,0,1.434,1.434A1.436,1.436,0,0,0,1750.8,121.2Z" transform="translate(-1748.236 -120.077)" fill="red"/>
  </g>
  <g id="그룹_13369" data-name="그룹 13369" transform="translate(53.316 31.727)">
    <ellipse id="타원_15081" data-name="타원 15081" cx="1.997" cy="1.997" rx="1.997" ry="1.997" transform="translate(0.563 0.563)" fill="red"/>
    <path id="패스_28656" data-name="패스 28656" d="M1773.852,131.183a2.56,2.56,0,1,1,2.56-2.56A2.563,2.563,0,0,1,1773.852,131.183Zm0-3.994a1.434,1.434,0,1,0,1.434,1.434A1.435,1.435,0,0,0,1773.852,127.189Z" transform="translate(-1771.292 -126.063)" fill="red"/>
  </g>
  <g id="그룹_13370" data-name="그룹 13370" transform="translate(70.292 15.749)">
    <ellipse id="타원_15082" data-name="타원 15082" cx="1.997" cy="1.997" rx="1.997" ry="1.997" transform="translate(0.563 0.563)" fill="red"/>
    <path id="패스_28657" data-name="패스 28657" d="M1796.465,109.9a2.56,2.56,0,1,1,2.56-2.561A2.563,2.563,0,0,1,1796.465,109.9Zm0-3.995a1.434,1.434,0,1,0,1.434,1.434A1.436,1.436,0,0,0,1796.465,105.906Z" transform="translate(-1793.905 -104.78)" fill="red"/>
  </g>
  <rect id="사각형_6091" data-name="사각형 6091" width="88.002" height="4.615" rx="0.75" transform="translate(3.271 77.162)" fill="red"/>
</svg>
