<svg xmlns="http://www.w3.org/2000/svg" width="94.544" height="81.777" viewBox="0 0 94.544 81.777">
  <g id="그룹_13442" data-name="그룹 13442" transform="translate(7893.368 -2018.255)">
    <g id="그룹_13412" data-name="그룹 13412" transform="translate(-7893.368 2018.255)">
      <g id="그룹_13410" data-name="그룹 13410">
        <rect id="사각형_6105" data-name="사각형 6105" width="60.706" height="93.793" transform="translate(94.169 0.376) rotate(90)" fill="#fff"/>
        <path id="패스_28687" data-name="패스 28687" d="M1794.816,467.159h-94.544V405.7h94.544Zm-93.794-.751h93.043V406.453h-93.043Z" transform="translate(-1700.272 -405.702)" fill="#d5ba8c"/>
      </g>
      <g id="그룹_13411" data-name="그룹 13411" transform="translate(6.403 5.296)">
        <ellipse id="타원_15108" data-name="타원 15108" cx="1.032" cy="1.064" rx="1.032" ry="1.064" fill="#d5ba8c"/>
        <ellipse id="타원_15109" data-name="타원 15109" cx="1.032" cy="1.064" rx="1.032" ry="1.064" transform="translate(4.127)" fill="#d5ba8c"/>
        <ellipse id="타원_15110" data-name="타원 15110" cx="1.032" cy="1.064" rx="1.032" ry="1.064" transform="translate(8.254)" fill="#d5ba8c"/>
      </g>
    </g>
    <g id="그룹_13413" data-name="그룹 13413" transform="translate(-7872.505 2036.002)">
      <path id="패스_28688" data-name="패스 28688" d="M1728.811,452.393l17.142-10.818,17.309,4.494,16.976-15.977" transform="translate(-1728.248 -429.529)" fill="none"/>
      <path id="패스_28689" data-name="패스 28689" d="M1728.625,452.769a.563.563,0,0,1-.3-1.039l17.142-10.818a.563.563,0,0,1,.442-.069l17.008,4.416,16.749-15.764a.563.563,0,0,1,.772.82l-16.976,15.977a.567.567,0,0,1-.528.135l-17.073-4.432-16.935,10.687A.559.559,0,0,1,1728.625,452.769Z" transform="translate(-1728.061 -429.342)" fill="#d5ba8c"/>
    </g>
    <g id="그룹_13414" data-name="그룹 13414" transform="translate(-7876.219 2052.534)">
      <rect id="사각형_6106" data-name="사각형 6106" width="8.654" height="20.97" transform="translate(0 22.476)" fill="#e0cba8"/>
      <rect id="사각형_6107" data-name="사각형 6107" width="8.654" height="31.664" transform="translate(17.198 11.781)" fill="#d5ba8c"/>
      <rect id="사각형_6108" data-name="사각형 6108" width="8.654" height="27.224" transform="translate(34.395 16.222)" fill="#eadda2"/>
      <rect id="사각형_6109" data-name="사각형 6109" width="8.654" height="43.446" transform="translate(51.593)" fill="#906846"/>
    </g>
    <g id="그룹_13415" data-name="그룹 13415" transform="translate(-7887.766 2029.511)">
      <line id="선_3530" data-name="선 3530" x2="82.216" transform="translate(0.563 0.563)" fill="#d5ba8c"/>
      <path id="패스_28690" data-name="패스 28690" d="M1790.512,421.821H1708.3a.563.563,0,0,1,0-1.126h82.216a.563.563,0,0,1,0,1.126Z" transform="translate(-1707.733 -420.695)" fill="#d5ba8c"/>
    </g>
    <path id="패스_28691" data-name="패스 28691" d="M1727.961,456.388a2.56,2.56,0,1,0,2.561,2.56A2.563,2.563,0,0,0,1727.961,456.388Z" transform="translate(-9599.904 1599.918)" fill="#d5ba8c"/>
    <path id="패스_28692" data-name="패스 28692" d="M1750.8,441.978a2.56,2.56,0,1,0,2.56,2.56A2.563,2.563,0,0,0,1750.8,441.978Z" transform="translate(-9605.596 1603.51)" fill="#d5ba8c"/>
    <path id="패스_28693" data-name="패스 28693" d="M1773.852,447.964a2.56,2.56,0,1,0,2.56,2.56A2.563,2.563,0,0,0,1773.852,447.964Z" transform="translate(-9611.344 1602.018)" fill="#d5ba8c"/>
    <path id="패스_28694" data-name="패스 28694" d="M1796.465,426.681a2.56,2.56,0,1,0,2.56,2.561A2.563,2.563,0,0,0,1796.465,426.681Z" transform="translate(-9616.98 1607.323)" fill="#d5ba8c"/>
    <rect id="사각형_6117" data-name="사각형 6117" width="88.002" height="4.615" rx="0.75" transform="translate(-7890.096 2095.417)" fill="#d5ba8c"/>
  </g>
</svg>
