<svg id="그룹_13390" data-name="그룹 13390" xmlns="http://www.w3.org/2000/svg" width="117.897" height="101.72" viewBox="0 0 117.897 101.72">
  <g id="그룹_13383" data-name="그룹 13383" transform="translate(11.49 75.915)">
    <g id="그룹_13380" data-name="그룹 13380" transform="translate(0 22.072)">
      <line id="선_3528" data-name="선 3528" x2="96.515" transform="translate(0.563 0.563)" fill="#fff"/>
      <path id="패스_28666" data-name="패스 28666" d="M1608.266,349.151h-96.515a.563.563,0,1,1,0-1.126h96.515a.563.563,0,0,1,0,1.126Z" transform="translate(-1511.188 -348.025)" fill="#8200ff"/>
    </g>
    <g id="그룹_13382" data-name="그룹 13382" transform="translate(44.363)">
      <rect id="사각형_6092" data-name="사각형 6092" width="1.501" height="21.208" transform="translate(2.345)" fill="#6d5ffa"/>
      <g id="그룹_13381" data-name="그룹 13381" transform="translate(0 19.615)">
        <ellipse id="타원_15087" data-name="타원 15087" cx="2.344" cy="2.344" rx="2.344" ry="2.344" transform="translate(0.751 0.751)" fill="#fff"/>
        <path id="패스_28667" data-name="패스 28667" d="M1573.378,350.942a3.095,3.095,0,1,1,3.1-3.094A3.1,3.1,0,0,1,1573.378,350.942Zm0-4.688a1.593,1.593,0,1,0,1.594,1.594A1.6,1.6,0,0,0,1573.378,346.253Z" transform="translate(-1570.283 -344.752)" fill="#6d5ffa"/>
      </g>
    </g>
  </g>
  <g id="그룹_13389" data-name="그룹 13389">
    <path id="패스_28668" data-name="패스 28668" d="M1590.938,247.171a36.806,36.806,0,0,0-68.774-9.825,29.462,29.462,0,0,0,3.193,58.752h63.861a24.491,24.491,0,0,0,1.72-48.927Z" transform="translate(-1495.883 -217.5)" fill="#e0bfff"/>
    <g id="그룹_13384" data-name="그룹 13384" transform="translate(24.244 44.529)">
      <rect id="사각형_6093" data-name="사각형 6093" width="68.658" height="11.925" transform="translate(0.375 0.375)" fill="#8200ff"/>
      <path id="패스_28669" data-name="패스 28669" d="M1597.587,289.492h-69.409V276.816h69.409Zm-68.658-.751h67.907V277.567h-67.907Z" transform="translate(-1528.178 -276.816)" fill="#8200ff"/>
    </g>
    <g id="그룹_13385" data-name="그룹 13385" transform="translate(24.244 59.596)">
      <rect id="사각형_6094" data-name="사각형 6094" width="68.658" height="11.925" transform="translate(0.375 0.375)" fill="#fff"/>
      <path id="패스_28670" data-name="패스 28670" d="M1597.587,309.561h-69.409V296.885h69.409Zm-68.658-.751h67.907V297.636h-67.907Z" transform="translate(-1528.178 -296.885)" fill="#8200ff"/>
    </g>
    <rect id="사각형_6095" data-name="사각형 6095" width="68.658" height="11.925" transform="translate(24.619 75.147)" fill="#6d5ffa"/>
    <g id="그룹_13386" data-name="그룹 13386" transform="translate(29.77 49.194)">
      <rect id="사각형_6096" data-name="사각형 6096" width="15.478" height="3.346" transform="translate(42.879)" fill="#fff"/>
      <ellipse id="타원_15088" data-name="타원 15088" cx="1.189" cy="1.189" rx="1.189" ry="1.189" transform="translate(0 0.484)" fill="#6d5ffa"/>
      <ellipse id="타원_15089" data-name="타원 15089" cx="1.189" cy="1.189" rx="1.189" ry="1.189" transform="translate(4.327 0.484)" fill="#e0bfff"/>
      <ellipse id="타원_15090" data-name="타원 15090" cx="1.189" cy="1.189" rx="1.189" ry="1.189" transform="translate(8.654 0.484)" fill="#fff"/>
    </g>
    <g id="그룹_13387" data-name="그룹 13387" transform="translate(29.77 64.26)">
      <rect id="사각형_6097" data-name="사각형 6097" width="15.478" height="3.346" transform="translate(42.879)" fill="#8200ff"/>
      <ellipse id="타원_15091" data-name="타원 15091" cx="1.189" cy="1.189" rx="1.189" ry="1.189" transform="translate(0 0.484)" fill="#c07fff"/>
      <ellipse id="타원_15092" data-name="타원 15092" cx="1.189" cy="1.189" rx="1.189" ry="1.189" transform="translate(4.327 0.484)" fill="#8200ff"/>
      <ellipse id="타원_15093" data-name="타원 15093" cx="1.189" cy="1.189" rx="1.189" ry="1.189" transform="translate(8.654 0.484)" fill="#6d5ffa"/>
    </g>
    <g id="그룹_13388" data-name="그룹 13388" transform="translate(29.77 79.326)">
      <rect id="사각형_6098" data-name="사각형 6098" width="15.478" height="3.346" transform="translate(42.879)" fill="#fff"/>
      <ellipse id="타원_15094" data-name="타원 15094" cx="1.189" cy="1.189" rx="1.189" ry="1.189" transform="translate(0 0.484)" fill="#e0bfff"/>
      <ellipse id="타원_15095" data-name="타원 15095" cx="1.189" cy="1.189" rx="1.189" ry="1.189" transform="translate(4.327 0.484)" fill="#8200ff"/>
      <ellipse id="타원_15096" data-name="타원 15096" cx="1.189" cy="1.189" rx="1.189" ry="1.189" transform="translate(8.654 0.484)" fill="#fff"/>
    </g>
  </g>
</svg>
