<svg id="그룹_13441" data-name="그룹 13441" xmlns="http://www.w3.org/2000/svg" width="117.897" height="101.72" viewBox="0 0 117.897 101.72">
  <g id="그룹_13419" data-name="그룹 13419" transform="translate(11.49 75.915)">
    <g id="그룹_13416" data-name="그룹 13416" transform="translate(0 22.073)">
      <line id="선_3531" data-name="선 3531" x2="96.515" transform="translate(0.563 0.563)" fill="#fff"/>
      <path id="패스_28695" data-name="패스 28695" d="M1608.266,511.037h-96.515a.563.563,0,1,1,0-1.126h96.515a.563.563,0,0,1,0,1.126Z" transform="translate(-1511.188 -509.911)" fill="#d5ba8c"/>
    </g>
    <g id="그룹_13418" data-name="그룹 13418" transform="translate(44.363)">
      <rect id="사각형_6110" data-name="사각형 6110" width="1.501" height="21.208" transform="translate(2.345)" fill="#906846"/>
      <g id="그룹_13417" data-name="그룹 13417" transform="translate(0 19.615)">
        <ellipse id="타원_15111" data-name="타원 15111" cx="2.344" cy="2.344" rx="2.344" ry="2.344" transform="translate(0.751 0.751)" fill="#fff"/>
        <path id="패스_28696" data-name="패스 28696" d="M1573.378,512.828a3.095,3.095,0,1,1,3.1-3.1A3.1,3.1,0,0,1,1573.378,512.828Zm0-4.688a1.593,1.593,0,1,0,1.594,1.593A1.6,1.6,0,0,0,1573.378,508.139Z" transform="translate(-1570.283 -506.638)" fill="#906846"/>
      </g>
    </g>
  </g>
  <g id="그룹_13425" data-name="그룹 13425">
    <path id="패스_28697" data-name="패스 28697" d="M1590.938,409.057a36.806,36.806,0,0,0-68.774-9.825,29.462,29.462,0,0,0,3.193,58.753h63.861a24.492,24.492,0,0,0,1.72-48.928Z" transform="translate(-1495.883 -379.386)" fill="#eadbc4"/>
    <g id="그룹_13420" data-name="그룹 13420" transform="translate(24.244 44.529)">
      <rect id="사각형_6111" data-name="사각형 6111" width="68.658" height="11.925" transform="translate(0.375 0.375)" fill="#d5ba8c"/>
      <path id="패스_28698" data-name="패스 28698" d="M1597.587,451.378h-69.409V438.7h69.409Zm-68.658-.751h67.907V439.453h-67.907Z" transform="translate(-1528.178 -438.702)" fill="#d5ba8c"/>
    </g>
    <g id="그룹_13421" data-name="그룹 13421" transform="translate(24.244 59.596)">
      <rect id="사각형_6112" data-name="사각형 6112" width="68.658" height="11.925" transform="translate(0.375 0.375)" fill="#fff"/>
      <path id="패스_28699" data-name="패스 28699" d="M1597.587,471.446h-69.409V458.771h69.409Zm-68.658-.751h67.907V459.522h-67.907Z" transform="translate(-1528.178 -458.771)" fill="#906846"/>
    </g>
    <rect id="사각형_6113" data-name="사각형 6113" width="68.658" height="11.925" transform="translate(24.619 75.147)" fill="#906846"/>
    <g id="그룹_13422" data-name="그룹 13422" transform="translate(29.77 49.194)">
      <rect id="사각형_6114" data-name="사각형 6114" width="15.478" height="3.346" transform="translate(42.879)" fill="#fff"/>
      <ellipse id="타원_15112" data-name="타원 15112" cx="1.189" cy="1.189" rx="1.189" ry="1.189" transform="translate(0 0.484)" fill="#906846"/>
      <ellipse id="타원_15113" data-name="타원 15113" cx="1.189" cy="1.189" rx="1.189" ry="1.189" transform="translate(4.327 0.484)" fill="#202020"/>
      <ellipse id="타원_15114" data-name="타원 15114" cx="1.189" cy="1.189" rx="1.189" ry="1.189" transform="translate(8.654 0.484)" fill="#fff"/>
    </g>
    <g id="그룹_13423" data-name="그룹 13423" transform="translate(29.77 64.26)">
      <rect id="사각형_6115" data-name="사각형 6115" width="15.478" height="3.346" transform="translate(42.879)" fill="#906846"/>
      <ellipse id="타원_15115" data-name="타원 15115" cx="1.189" cy="1.189" rx="1.189" ry="1.189" transform="translate(0 0.484)" fill="#e0c287"/>
      <ellipse id="타원_15116" data-name="타원 15116" cx="1.189" cy="1.189" rx="1.189" ry="1.189" transform="translate(4.327 0.484)" fill="#906846"/>
      <ellipse id="타원_15117" data-name="타원 15117" cx="1.189" cy="1.189" rx="1.189" ry="1.189" transform="translate(8.654 0.484)" fill="#eadbc4"/>
    </g>
    <g id="그룹_13424" data-name="그룹 13424" transform="translate(29.77 79.326)">
      <rect id="사각형_6116" data-name="사각형 6116" width="15.478" height="3.346" transform="translate(42.879)" fill="#fff"/>
      <ellipse id="타원_15118" data-name="타원 15118" cx="1.189" cy="1.189" rx="1.189" ry="1.189" transform="translate(0 0.484)" fill="#eadda2"/>
      <ellipse id="타원_15119" data-name="타원 15119" cx="1.189" cy="1.189" rx="1.189" ry="1.189" transform="translate(4.327 0.484)" fill="#d5ba8c"/>
      <ellipse id="타원_15120" data-name="타원 15120" cx="1.189" cy="1.189" rx="1.189" ry="1.189" transform="translate(8.654 0.484)" fill="#fff"/>
    </g>
  </g>
</svg>
