<svg id="그룹_13437" data-name="그룹 13437" xmlns="http://www.w3.org/2000/svg" width="117.897" height="101.72" viewBox="0 0 117.897 101.72">
  <g id="그룹_13353" data-name="그룹 13353" transform="translate(11.49 75.915)">
    <g id="그룹_13350" data-name="그룹 13350" transform="translate(0 22.073)">
      <line id="선_3526" data-name="선 3526" x2="96.515" transform="translate(0.563 0.563)" fill="#fff"/>
      <path id="패스_28645" data-name="패스 28645" d="M1608.266,189.136h-96.515a.563.563,0,1,1,0-1.126h96.515a.563.563,0,0,1,0,1.126Z" transform="translate(-1511.188 -188.01)" fill="red"/>
    </g>
    <g id="그룹_13352" data-name="그룹 13352" transform="translate(44.363)">
      <rect id="사각형_6079" data-name="사각형 6079" width="1.501" height="21.208" transform="translate(2.345)" fill="#ff8340"/>
      <g id="그룹_13351" data-name="그룹 13351" transform="translate(0 19.615)">
        <ellipse id="타원_15066" data-name="타원 15066" cx="2.344" cy="2.344" rx="2.344" ry="2.344" transform="translate(0.751 0.751)" fill="#fff"/>
        <path id="패스_28646" data-name="패스 28646" d="M1573.378,190.927a3.095,3.095,0,1,1,3.1-3.1A3.1,3.1,0,0,1,1573.378,190.927Zm0-4.688a1.593,1.593,0,1,0,1.594,1.593A1.6,1.6,0,0,0,1573.378,186.238Z" transform="translate(-1570.283 -184.737)" fill="#fa7b5f"/>
      </g>
    </g>
  </g>
  <g id="그룹_13359" data-name="그룹 13359">
    <path id="패스_28647" data-name="패스 28647" d="M1590.938,87.156a36.806,36.806,0,0,0-68.774-9.825,29.462,29.462,0,0,0,3.193,58.752h63.861a24.492,24.492,0,0,0,1.72-48.928Z" transform="translate(-1495.883 -57.485)" fill="#ffbfbf"/>
    <g id="그룹_13354" data-name="그룹 13354" transform="translate(24.244 44.529)">
      <rect id="사각형_6080" data-name="사각형 6080" width="68.658" height="11.925" transform="translate(0.375 0.375)" fill="red"/>
      <path id="패스_28648" data-name="패스 28648" d="M1597.587,129.477h-69.409V116.8h69.409Zm-68.658-.751h67.907V117.552h-67.907Z" transform="translate(-1528.178 -116.801)" fill="red"/>
    </g>
    <g id="그룹_13355" data-name="그룹 13355" transform="translate(24.244 59.596)">
      <rect id="사각형_6081" data-name="사각형 6081" width="68.658" height="11.925" transform="translate(0.375 0.375)" fill="#fff"/>
      <path id="패스_28649" data-name="패스 28649" d="M1597.587,149.545h-69.409V136.87h69.409Zm-68.658-.751h67.907V137.621h-67.907Z" transform="translate(-1528.178 -136.87)" fill="red"/>
    </g>
    <rect id="사각형_6082" data-name="사각형 6082" width="68.658" height="11.925" transform="translate(24.619 75.147)" fill="#ff8340"/>
    <g id="그룹_13356" data-name="그룹 13356" transform="translate(29.77 49.194)">
      <rect id="사각형_6083" data-name="사각형 6083" width="15.478" height="3.346" transform="translate(42.879)" fill="#fff"/>
      <ellipse id="타원_15067" data-name="타원 15067" cx="1.189" cy="1.189" rx="1.189" ry="1.189" transform="translate(0 0.484)" fill="#fa7b5f"/>
      <ellipse id="타원_15068" data-name="타원 15068" cx="1.189" cy="1.189" rx="1.189" ry="1.189" transform="translate(4.327 0.484)" fill="#ffbfbf"/>
      <ellipse id="타원_15069" data-name="타원 15069" cx="1.189" cy="1.189" rx="1.189" ry="1.189" transform="translate(8.654 0.484)" fill="#fff"/>
    </g>
    <g id="그룹_13357" data-name="그룹 13357" transform="translate(29.77 64.26)">
      <rect id="사각형_6084" data-name="사각형 6084" width="15.478" height="3.346" transform="translate(42.879)" fill="red"/>
      <ellipse id="타원_15070" data-name="타원 15070" cx="1.189" cy="1.189" rx="1.189" ry="1.189" transform="translate(0 0.484)" fill="#ff8340"/>
      <ellipse id="타원_15071" data-name="타원 15071" cx="1.189" cy="1.189" rx="1.189" ry="1.189" transform="translate(4.327 0.484)" fill="#ffbfbf"/>
      <ellipse id="타원_15072" data-name="타원 15072" cx="1.189" cy="1.189" rx="1.189" ry="1.189" transform="translate(8.654 0.484)" fill="red"/>
    </g>
    <g id="그룹_13358" data-name="그룹 13358" transform="translate(29.77 79.326)">
      <rect id="사각형_6085" data-name="사각형 6085" width="15.478" height="3.346" transform="translate(42.879)" fill="#ffbfbf"/>
      <ellipse id="타원_15073" data-name="타원 15073" cx="1.189" cy="1.189" rx="1.189" ry="1.189" transform="translate(0 0.484)" fill="#ffbfbf"/>
      <ellipse id="타원_15074" data-name="타원 15074" cx="1.189" cy="1.189" rx="1.189" ry="1.189" transform="translate(4.327 0.484)" fill="#fff"/>
      <ellipse id="타원_15075" data-name="타원 15075" cx="1.189" cy="1.189" rx="1.189" ry="1.189" transform="translate(8.654 0.484)" fill="#fff"/>
    </g>
  </g>
</svg>
