<svg xmlns="http://www.w3.org/2000/svg" xmlns:xlink="http://www.w3.org/1999/xlink" width="70" height="70" viewBox="0 0 70 70">
  <defs>
    <clipPath id="clip-_01_a_ico1_03">
      <rect width="70" height="70"/>
    </clipPath>
  </defs>
  <g id="_01_a_ico1_03" data-name="01_a_ico1_03" clip-path="url(#clip-_01_a_ico1_03)">
    <g id="그룹_13475" data-name="그룹 13475">
      <g id="그룹_13469" data-name="그룹 13469" transform="translate(19392.535 15736.662)">
        <rect id="사각형_5720" data-name="사각형 5720" width="8.426" height="23.171" transform="translate(-19343 -15719.396) rotate(-30.426)"/>
        <path id="패스_27468" data-name="패스 27468" d="M36.35,24.516l2.5-1.447L29.53,8.2l-4.644.368L11.418,14.846a2.3,2.3,0,0,0-1.305,2.239h0a3.283,3.283,0,0,0,3.005,2.565l.069-.013a37.579,37.579,0,0,0,9.12-2.973h0Z" transform="translate(-19374.23 -15723.931)"/>
        <path id="패스_27469" data-name="패스 27469" d="M38.893,26.177A2.227,2.227,0,1,0,41.2,22.371l-9.139-5.792A46.071,46.071,0,0,1,25.3,19.152a13.181,13.181,0,0,1-2.608.35l-.382.019a4.894,4.894,0,0,1-4.287-1.946,3.07,3.07,0,0,1-.582-1.433,4.088,4.088,0,0,1,1.666-3.278l3-1.759c-5.482-2.653-8.151-1.543-8.151-1.543a5.317,5.317,0,0,0-3.446,2.45l-5.57,9.182a5.345,5.345,0,0,0,1.794,7.343l9.518,5.773,2.664,1.617,8.755,5.314a2.227,2.227,0,1,0,2.311-3.806l-8.755-5.314.924-1.524,11.8,7.164a2.228,2.228,0,0,0,2.311-3.809l-11.8-7.161.926-1.521L38.7,33.355a2.227,2.227,0,0,0,2.311-3.806L27.691,21.464l.924-1.524Z" transform="translate(-19384.154 -15722.043)"/>
        <rect id="사각형_5721" data-name="사각형 5721" width="19.592" height="7.124" transform="matrix(0.519, -0.855, 0.855, 0.519, -19390.535, -15701.901)"/>
      </g>
      <rect id="사각형_6120" data-name="사각형 6120" width="70" height="70" fill="none"/>
    </g>
  </g>
</svg>
