<svg xmlns="http://www.w3.org/2000/svg" xmlns:xlink="http://www.w3.org/1999/xlink" width="250" height="50" viewBox="0 0 250 50">
  <defs>
    <clipPath id="clip-_00_logo2_mice">
      <rect width="250" height="50"/>
    </clipPath>
  </defs>
  <g id="_00_logo2_mice" data-name="00_logo2_mice" clip-path="url(#clip-_00_logo2_mice)">
    <g id="그룹_13502" data-name="그룹 13502" transform="translate(3.001 2)">
      <g id="그룹_12933" data-name="그룹 12933" transform="translate(74.562 5.071)">
        <path id="패스_28496" data-name="패스 28496" d="M502.112,263.779v12.729h-5.339V264.166a4.38,4.38,0,0,0-1.006-3.25,3.693,3.693,0,0,0-5.339.039,4.007,4.007,0,0,0-.967,2.9v12.651h-5.339V264.166a4.38,4.38,0,0,0-1.006-3.25,3.691,3.691,0,0,0-5.338.039,4.009,4.009,0,0,0-.968,2.9v12.651h-5.3V255.617h4.641v2.244a7.928,7.928,0,0,1,6.035-2.747,7.476,7.476,0,0,1,5.261,1.935,6.915,6.915,0,0,1,.967,1.276,7.956,7.956,0,0,1,6.422-3.211,7.478,7.478,0,0,1,5.262,1.935C501.918,258.943,502.112,261.11,502.112,263.779Z" transform="translate(-471.511 -248.073)"/>
        <path id="패스_28497" data-name="패스 28497" d="M506.294,249.158V253.8h-5.262v-4.643Zm0,7.544v20.891h-5.262V256.7Z" transform="translate(-466.132 -249.158)"/>
        <path id="패스_28498" data-name="패스 28498" d="M523.051,263.4a4.4,4.4,0,0,0-4.216-3.443c-3.327,0-4.8,2.63-4.8,6.112,0,3.638,1.624,6.113,4.8,6.113,2.36,0,3.482-1.122,4.1-3.134l5.377,1.122c-1.2,4.449-4.642,6.925-9.478,6.925-6.5,0-10.368-4.758-10.368-11.027,0-6.344,4.062-11.025,10.445-11.025,4.913,0,8.473,2.669,9.4,6.963Z" transform="translate(-464.777 -248.085)"/>
        <path id="패스_28499" data-name="패스 28499" d="M536.672,272.187a4.526,4.526,0,0,0,4.333-2.632l5.261,1.51a9.991,9.991,0,0,1-9.284,6.035c-6.539,0-10.872-4.527-10.872-10.756,0-6.769,4.217-11.3,10.562-11.3,6.848,0,10.368,5.223,9.788,12.5H531.8C532.184,270.445,533.848,272.187,536.672,272.187Zm-4.721-8.7h9.169c-.349-2.476-1.47-3.869-4.449-3.869A4.409,4.409,0,0,0,531.952,263.482Z" transform="translate(-461.562 -248.085)"/>
        <path id="패스_28500" data-name="패스 28500" d="M564.671,255.539l-7.582,20.891h-5.262l-7.583-20.891h5.262l4.952,14.469,4.951-14.469Z" transform="translate(-458.257 -247.995)"/>
        <path id="패스_28501" data-name="패스 28501" d="M569.113,249.158V253.8h-5.261v-4.643Zm0,7.544v20.891h-5.261V256.7Z" transform="translate(-454.684 -249.158)"/>
        <path id="패스_28502" data-name="패스 28502" d="M581.848,272.187a4.526,4.526,0,0,0,4.333-2.632l5.261,1.51a9.993,9.993,0,0,1-9.285,6.035c-6.538,0-10.87-4.527-10.87-10.756,0-6.769,4.216-11.3,10.562-11.3,6.848,0,10.368,5.223,9.788,12.5H576.973C577.36,270.445,579.023,272.187,581.848,272.187Zm-4.721-8.7H586.3c-.349-2.476-1.469-3.869-4.449-3.869A4.408,4.408,0,0,0,577.127,263.482Z" transform="translate(-453.329 -248.085)"/>
        <path id="패스_28503" data-name="패스 28503" d="M619.036,255.545l-6.383,20.891h-4.372l-4.217-13.618L599.5,276.436h-4.022l-6.384-20.93,5.184.039L598.068,268l3.83-12.457h4.372L610.1,268l3.791-12.457Z" transform="translate(-450.084 -248.001)"/>
      </g>
      <g id="그룹_12934" data-name="그룹 12934">
        <path id="패스_28504" data-name="패스 28504" d="M461.522,289.941a250.533,250.533,0,0,1-45.493,0,7.9,7.9,0,0,1-7.167-7.423,253.687,253.687,0,0,1,0-29.191,7.9,7.9,0,0,1,7.166-7.423,250.546,250.546,0,0,1,45.494,0,7.9,7.9,0,0,1,7.165,7.423,253.081,253.081,0,0,1,0,29.191,7.9,7.9,0,0,1-7.165,7.423" transform="translate(-408.442 -244.869)" fill="#8200ff"/>
        <path id="패스_28505" data-name="패스 28505" d="M455.814,260.119a3.706,3.706,0,0,0-3.542-3.693l.007,0-30.439.066h-.179l.007,0a3.7,3.7,0,0,0-3.525,3.707l.027,12.523a2.49,2.49,0,0,0,3.784,2.122l1.871-1.136-.014-6.513a.646.646,0,0,1,.645-.648l3.151-.006a.647.647,0,0,1,.649.644l.008,3.826,8.725-5.3,15.075,9.07a2.492,2.492,0,0,0,3.776-2.14Z" transform="translate(-406.673 -242.763)" fill="#fff"/>
      </g>
    </g>
  </g>
</svg>
