<svg xmlns="http://www.w3.org/2000/svg" xmlns:xlink="http://www.w3.org/1999/xlink" width="190" height="50" viewBox="0 0 190 50">
  <defs>
    <clipPath id="clip-_00_logo4_olim">
      <rect width="190" height="50"/>
    </clipPath>
  </defs>
  <g id="_00_logo4_olim" data-name="00_logo4_olim" clip-path="url(#clip-_00_logo4_olim)">
    <g id="그룹_13505" data-name="그룹 13505" transform="translate(1.005 -1.526)">
      <path id="패스_28481" data-name="패스 28481" d="M375.9,3.525h-5.272V14.069H381.17V3.525Z" transform="translate(-316.717 0)" fill="#e93317"/>
      <path id="패스_28482" data-name="패스 28482" d="M274.385,3.567h-5.272V49.258h10.544V3.567Z" transform="translate(-229.263 -0.036)" fill="#e93317"/>
      <path id="패스_28483" data-name="패스 28483" d="M375.9,105.076h-5.272v31.632H381.17V105.076Z" transform="translate(-316.717 -87.486)" fill="#e93317"/>
      <path id="패스_28484" data-name="패스 28484" d="M487.951,105.08H472.135v31.632h31.632V105.08Z" transform="translate(-404.168 -87.49)" fill="#e93317"/>
      <path id="패스_28485" data-name="패스 28485" d="M19.664,98.734h0A16.67,16.67,0,0,0,2.994,115.4h0a16.671,16.671,0,0,0,16.67,16.671h0A16.671,16.671,0,0,0,36.335,115.4h0a16.67,16.67,0,0,0-16.67-16.67Z" transform="translate(0 -82.023)" fill="#e93317"/>
      <g id="그룹_12930" data-name="그룹 12930" transform="translate(106.628 18.419)">
        <path id="패스_28486" data-name="패스 28486" d="M758.308,111.065a7.046,7.046,0,1,0,4.955,2.064A6.784,6.784,0,0,0,758.308,111.065Zm3.113,10.132a4.381,4.381,0,1,1,1.3-3.113A4.281,4.281,0,0,1,761.421,121.2Z" transform="translate(-751.289 -111.065)" fill="#191919"/>
        <path id="패스_28487" data-name="패스 28487" d="M867.8,111.065h-2.471V125.1H875.4v-2.616H867.8Z" transform="translate(-849.539 -111.065)" fill="#191919"/>
        <rect id="사각형_5777" data-name="사각형 5777" width="2.47" height="14.038" transform="translate(27.616 0)" fill="#191919"/>
        <path id="패스_28488" data-name="패스 28488" d="M771.629,225.426h-7.65v14.037h2.471v-4.288h5.179a4.375,4.375,0,0,0,3.268-1.428,5.034,5.034,0,0,0,0-6.889A4.366,4.366,0,0,0,771.629,225.426Zm1.528,6.475a2.043,2.043,0,0,1-1.528.667H766.45v-4.536h5.179a2.032,2.032,0,0,1,1.528.672,2.339,2.339,0,0,1,0,3.2Z" transform="translate(-762.221 -209.588)" fill="#191919"/>
        <path id="패스_28489" data-name="패스 28489" d="M867.8,225.426h-2.471v14.037H875.4v-2.615H867.8Z" transform="translate(-849.539 -209.588)" fill="#191919"/>
        <path id="패스_28490" data-name="패스 28490" d="M1157.187,236.848h-7.919v-3.1h6.564v-2.605h-6.564v-3.11h7.919v-2.606H1146.8v14.037h10.39Z" transform="translate(-1092.022 -209.588)" fill="#191919"/>
        <path id="패스_28491" data-name="패스 28491" d="M1234.506,228.032h4.478v11.431h2.47V228.032h4.478v-2.606h-11.426Z" transform="translate(-1167.584 -209.588)" fill="#191919"/>
        <path id="패스_28492" data-name="패스 28492" d="M991.723,125.1h2.47V111.065h-2.522l-3.968,7.066-3.968-7.066h-2.521V125.1h2.469v-9.688l4.019,6.87,4.019-6.87Z" transform="translate(-949.372 -111.065)" fill="#191919"/>
        <path id="패스_28493" data-name="패스 28493" d="M951.145,240.652h2.626l.914-2.144h4.742l.074.172.835,1.972h2.633l-5.92-13.846Zm7.16-4.751h-2.5l1.257-2.938Z" transform="translate(-923.466 -210.777)" fill="#191919"/>
        <path id="패스_28494" data-name="패스 28494" d="M1049.677,225.426v14.037h2.47V229.85l6.694,9.612h2.529V225.426h-2.47v9.6l-6.694-9.6Z" transform="translate(-1008.352 -209.588)" fill="#191919"/>
      </g>
    </g>
  </g>
</svg>
