<svg xmlns="http://www.w3.org/2000/svg" xmlns:xlink="http://www.w3.org/1999/xlink" width="120" height="120" viewBox="0 0 120 120">
  <defs>
    <linearGradient id="linear-gradient" y1="-16.04" x2="1" y2="-16.04" gradientUnits="objectBoundingBox">
      <stop offset="0" stop-color="#ffcd7d"/>
      <stop offset="0.15" stop-color="#ffcd7d" stop-opacity="0.988"/>
      <stop offset="0.27" stop-color="#ffcd7d" stop-opacity="0.949"/>
      <stop offset="0.38" stop-color="#ffcd7d" stop-opacity="0.878"/>
      <stop offset="0.49" stop-color="#ffcd7d" stop-opacity="0.78"/>
      <stop offset="0.6" stop-color="#ffcd7d" stop-opacity="0.659"/>
      <stop offset="0.7" stop-color="#ffcd7d" stop-opacity="0.51"/>
      <stop offset="0.8" stop-color="#ffcd7d" stop-opacity="0.329"/>
      <stop offset="0.89" stop-color="#ffcd7d" stop-opacity="0.129"/>
      <stop offset="0.94" stop-color="#ffcd7d" stop-opacity="0"/>
    </linearGradient>
    <clipPath id="clip-_00_r_ico1_04">
      <rect width="120" height="120"/>
    </clipPath>
  </defs>
  <g id="_00_r_ico1_04" data-name="00_r_ico1_04" clip-path="url(#clip-_00_r_ico1_04)">
    <g id="그룹_13463" data-name="그룹 13463">
      <g id="그룹_12969" data-name="그룹 12969" transform="translate(0.211 0.109)">
        <path id="패스_28551" data-name="패스 28551" d="M13.843,33H81.108l-.053,71.395-67.265-.03Z" transform="translate(0 -4.965)" fill="#ceccf1" fill-rule="evenodd"/>
        <rect id="사각형_5872" data-name="사각형 5872" width="6.591" height="1.859" transform="translate(20.039 80.059)" fill="#ffe6be"/>
        <rect id="사각형_5873" data-name="사각형 5873" width="6.591" height="1.859" transform="translate(20.039 84.284)" fill="#ff9300"/>
        <rect id="사각형_5874" data-name="사각형 5874" width="6.591" height="1.853" transform="translate(20.039 88.515)" fill="#ffcd7d"/>
        <rect id="사각형_5875" data-name="사각형 5875" width="30.694" height="2.089" transform="translate(31.096 82.16)" fill="#fff"/>
        <rect id="사각형_5876" data-name="사각형 5876" width="30.694" height="2.083" transform="translate(31.096 88.403)" fill="#fff"/>
        <rect id="사각형_5877" data-name="사각형 5877" width="30.694" height="2.083" transform="translate(31.096 85.281)" fill="#fff"/>
        <rect id="사각형_5878" data-name="사각형 5878" width="30.694" height="2.083" transform="translate(31.096 79.039)" fill="#fff"/>
        <rect id="사각형_5879" data-name="사각형 5879" width="1.392" height="14.344" transform="translate(20.039 49.784)" fill="#fff"/>
        <rect id="사각형_5880" data-name="사각형 5880" width="41.751" height="1.351" transform="translate(20.039 64.122)" fill="#fff"/>
        <path id="패스_28552" data-name="패스 28552" d="M32.056,85.16h4.508l-.006,3.965H32.05Z" transform="translate(-7.486 -26.348)" fill="#ffe6be" fill-rule="evenodd"/>
        <rect id="사각형_5881" data-name="사각형 5881" width="4.508" height="5.676" transform="translate(29.774 57.101)" fill="#ff9300"/>
        <rect id="사각형_5882" data-name="사각형 5882" width="4.508" height="9.659" transform="translate(34.99 53.13)" fill="#ffcd7d"/>
        <rect id="사각형_5883" data-name="사각형 5883" width="4.508" height="8.32" transform="translate(40.2 54.469)" fill="#d0bbe3"/>
        <rect id="사각형_5884" data-name="사각형 5884" width="4.508" height="4.166" transform="translate(45.41 58.623)" fill="#dacce8"/>
        <rect id="사각형_5885" data-name="사각형 5885" width="4.508" height="5.735" transform="translate(50.491 57.054)" fill="#851994"/>
        <rect id="사각형_5886" data-name="사각형 5886" width="4.508" height="8.32" transform="translate(55.707 54.469)" fill="#f9efde"/>
        <rect id="사각형_5887" data-name="사각형 5887" width="4.508" height="13.813" transform="translate(60.917 48.976)" fill="#fff"/>
        <path id="패스_28553" data-name="패스 28553" d="M53.21,99.9l43.4.006.106-66.863-43.4-.012Z" transform="translate(-16.161 -4.977)" fill-rule="evenodd" opacity="0.1" style="isolation: isolate"/>
        <path id="패스_28554" data-name="패스 28554" d="M57.173,20.89l67.265.03-.053,71.395H57.12Z" transform="translate(-17.764)" fill="#fff" stroke="#5b54cf" stroke-miterlimit="10" stroke-width="1" fill-rule="evenodd"/>
        <rect id="사각형_5888" data-name="사각형 5888" width="67.265" height="3.151" transform="translate(39.38 20.89)" fill="#5b54cf"/>
        <path id="패스_28555" data-name="패스 28555" d="M102.328,66.49A5.9,5.9,0,0,1,101,68.738l4.608,6.219a13.57,13.57,0,0,0,4.632-7.617Z" transform="translate(-35.753 -18.694)" fill="#deddf5"/>
        <path id="패스_28556" data-name="패스 28556" d="M95.272,47.811a6.183,6.183,0,0,1,4.986,5.417l7.877.838v-.26A13.9,13.9,0,0,0,95.26,40.17Z" transform="translate(-33.399 -7.904)" fill="#efeefa"/>
        <path id="패스_28557" data-name="패스 28557" d="M80.457,49.7a6.272,6.272,0,0,1,3.375-1.888V40.17a14.231,14.231,0,0,0-10.2,5.647Z" transform="translate(-24.532 -7.904)" fill="#bdbbec"/>
        <path id="패스_28558" data-name="패스 28558" d="M85.812,64.811a6.368,6.368,0,0,1-2.555.537,6.237,6.237,0,0,1-6.331-6.131,6.007,6.007,0,0,1,.372-1.935L70.465,53.37a13.286,13.286,0,0,0-1.375,5.847,13.936,13.936,0,0,0,14.161,13.7A14.4,14.4,0,0,0,90.4,71.03Z" transform="translate(-22.671 -13.315)" fill="#5b54cf"/>
        <rect id="사각형_5889" data-name="사각형 5889" width="5.658" height="1.369" transform="translate(78.205 50.304)" fill="#efeefa"/>
        <rect id="사각형_5890" data-name="사각형 5890" width="5.658" height="1.369" transform="translate(78.205 52.481)" fill="#deddf5"/>
        <rect id="사각형_5891" data-name="사각형 5891" width="5.658" height="1.369" transform="translate(78.205 54.658)" fill="#bdbbec"/>
        <rect id="사각형_5892" data-name="사각형 5892" width="5.658" height="1.369" transform="translate(78.205 56.829)" fill="#5b54cf"/>
        <rect id="사각형_5893" data-name="사각형 5893" width="14.645" height="1.369" transform="translate(84.961 50.304)" fill="#eee"/>
        <rect id="사각형_5894" data-name="사각형 5894" width="14.645" height="1.369" transform="translate(84.961 52.481)" fill="#eee"/>
        <rect id="사각형_5895" data-name="사각형 5895" width="14.645" height="1.369" transform="translate(84.961 54.658)" fill="#eee"/>
        <rect id="사각형_5896" data-name="사각형 5896" width="14.645" height="1.369" transform="translate(84.961 56.829)" fill="#eee"/>
        <rect id="사각형_5897" data-name="사각형 5897" width="57.842" height="0.667" transform="translate(44.095 65.668)" fill="url(#linear-gradient)"/>
        <path id="패스_28559" data-name="패스 28559" d="M69.168,119.293l-.738-.968,9.175-6.549,5.965,3.947,9.523-6.313.7,1L83.57,117.181l-5.936-3.93Z" transform="translate(-22.4 -36.29)" fill="#ffe6be"/>
        <path id="패스_28560" data-name="패스 28560" d="M109.352,112.526h-1V110.4H106.16v-.962h3.192Z" transform="translate(-37.868 -36.302)" fill="#ffe6be"/>
        <rect id="사각형_5898" data-name="사각형 5898" width="23.183" height="1.328" transform="translate(76.818 76.354)" fill="#eee"/>
        <rect id="사각형_5899" data-name="사각형 5899" width="23.183" height="1.328" transform="translate(76.818 78.608)" fill="#eee"/>
        <rect id="사각형_5900" data-name="사각형 5900" width="23.183" height="1.328" transform="translate(76.818 80.868)" fill="#eee"/>
        <rect id="사각형_5901" data-name="사각형 5901" width="17.182" height="1.328" transform="translate(76.818 83.122)" fill="#eee"/>
      </g>
      <rect id="사각형_6118" data-name="사각형 6118" width="120" height="120" fill="none"/>
    </g>
  </g>
</svg>
