<svg xmlns="http://www.w3.org/2000/svg" xmlns:xlink="http://www.w3.org/1999/xlink" width="128" height="128" viewBox="0 0 128 128">
  <defs>
    <linearGradient id="linear-gradient" y1="0.5" x2="1" y2="0.5" gradientUnits="objectBoundingBox">
      <stop offset="0" stop-color="#8200ff"/>
      <stop offset="0.089" stop-color="#8502f8"/>
      <stop offset="0.216" stop-color="#8e09e5"/>
      <stop offset="0.367" stop-color="#9e14c5"/>
      <stop offset="0.537" stop-color="#b3239a"/>
      <stop offset="0.721" stop-color="#ce3762"/>
      <stop offset="0.915" stop-color="#ef4e1f"/>
      <stop offset="0.999" stop-color="#ff5a00"/>
      <stop offset="0.999" stop-color="#f8540d"/>
      <stop offset="0.999" stop-color="#f34f19"/>
      <stop offset="1" stop-color="#ef4c20"/>
      <stop offset="1" stop-color="#ef4c22"/>
    </linearGradient>
    <clipPath id="clip-Solution_3">
      <rect width="128" height="128"/>
    </clipPath>
  </defs>
  <g id="Solution_3" clip-path="url(#clip-Solution_3)">
    <g id="그룹_13616" data-name="그룹 13616" transform="translate(18 25)">
      <path id="패스_28735" data-name="패스 28735" d="M537.09,218.474l67.318.028-.053,71.466-67.318-.029Z" transform="translate(-537.036 -211.301)" fill="#fde4de" fill-rule="evenodd"/>
      <g id="그룹_13603" data-name="그룹 13603" transform="translate(6.252 58.196)">
        <rect id="사각형_6172" data-name="사각형 6172" width="6.598" height="1.857" transform="translate(0 1.016)" fill="#fff"/>
        <rect id="사각형_6173" data-name="사각형 6173" width="6.598" height="1.857" transform="translate(0 5.249)" fill="#a140ff"/>
        <rect id="사각형_6174" data-name="사각형 6174" width="6.598" height="1.857" transform="translate(0 9.482)" fill="#df7d99"/>
        <rect id="사각형_6175" data-name="사각형 6175" width="30.717" height="2.088" transform="translate(11.065 3.122)" fill="#fff"/>
        <rect id="사각형_6176" data-name="사각형 6176" width="30.717" height="2.087" transform="translate(11.065 9.368)" fill="#fff"/>
        <rect id="사각형_6177" data-name="사각형 6177" width="30.717" height="2.087" transform="translate(11.065 6.245)" fill="#fff"/>
        <rect id="사각형_6178" data-name="사각형 6178" width="30.717" height="2.087" transform="translate(11.065)" fill="#fff"/>
      </g>
      <g id="그룹_13604" data-name="그룹 13604" transform="translate(6.252 28.915)">
        <rect id="사각형_6179" data-name="사각형 6179" width="1.396" height="14.352" transform="translate(0.001)" fill="#fff"/>
        <rect id="사각형_6180" data-name="사각형 6180" width="41.782" height="1.351" transform="translate(0 14.352)" fill="#fff"/>
      </g>
      <g id="그룹_13605" data-name="그룹 13605" transform="translate(10.781 28.108)">
        <path id="패스_28736" data-name="패스 28736" d="M555.3,270.6l4.511,0-.008,3.97-4.512,0Z" transform="translate(-555.294 -260.754)" fill="#fff" fill-rule="evenodd"/>
        <rect id="사각형_6181" data-name="사각형 6181" width="4.511" height="5.681" transform="translate(5.219 8.134)" fill="#a140ff"/>
        <rect id="사각형_6182" data-name="사각형 6182" width="4.511" height="9.664" transform="translate(10.434 4.155)" fill="#df7d99"/>
        <rect id="사각형_6183" data-name="사각형 6183" width="4.511" height="8.323" transform="translate(15.651 5.498)" fill="#d0bbe3"/>
        <rect id="사각형_6184" data-name="사각형 6184" width="4.511" height="4.166" transform="translate(20.866 9.658)" fill="#dacce8"/>
        <rect id="사각형_6185" data-name="사각형 6185" width="4.511" height="5.737" transform="translate(25.949 8.082)" fill="#851994"/>
        <rect id="사각형_6186" data-name="사각형 6186" width="4.511" height="8.325" transform="translate(31.166 5.497)" fill="#f9efde"/>
        <rect id="사각형_6187" data-name="사각형 6187" width="4.511" height="13.824" transform="translate(36.381)" fill="#fff"/>
      </g>
      <g id="그룹_13612" data-name="그룹 13612" transform="translate(23.276 0)">
        <path id="패스_28737" data-name="패스 28737" d="M576.454,285.391l43.432.009.1-66.917-43.432-.008Z" transform="translate(-576.454 -211.301)" fill-rule="evenodd" opacity="0.1"/>
        <g id="그룹_13611" data-name="그룹 13611" transform="translate(2.309)">
          <path id="패스_28738" data-name="패스 28738" d="M580.418,206.327l67.317.028-.053,71.466-67.317-.028Z" transform="translate(-580.365 -206.327)" fill="#fff" stroke="#8200ff" stroke-miterlimit="10" stroke-width="1" fill-rule="evenodd"/>
          <rect id="사각형_6188" data-name="사각형 6188" width="67.318" height="3.151" transform="translate(0.026 0)" fill="#8200ff"/>
          <g id="그룹_13609" data-name="그룹 13609" transform="translate(7.072 11.386)">
            <g id="그룹_13606" data-name="그룹 13606">
              <path id="패스_28739" data-name="패스 28739" d="M625.561,251.929a5.954,5.954,0,0,1-1.352,2.247l4.61,6.227a13.562,13.562,0,0,0,4.638-7.626Z" transform="translate(-605.391 -236.387)" fill="#c080ff"/>
              <path id="패스_28740" data-name="패스 28740" d="M618.53,233.253a6.2,6.2,0,0,1,4.988,5.421l7.885.841c0-.086.011-.169.011-.258a13.9,13.9,0,0,0-12.884-13.649Z" transform="translate(-603.066 -225.609)" fill="#a140ff"/>
              <path id="패스_28741" data-name="패스 28741" d="M603.709,235.147a6.314,6.314,0,0,1,3.381-1.894v-7.644a14.253,14.253,0,0,0-10.21,5.649Z" transform="translate(-594.2 -225.609)" fill="#e0bfff"/>
              <path id="패스_28742" data-name="패스 28742" d="M609.074,250.261a6.426,6.426,0,0,1-2.559.533,6.236,6.236,0,0,1-6.334-6.13,5.883,5.883,0,0,1,.362-1.961l-6.829-3.892a13.31,13.31,0,0,0-1.373,5.854,13.945,13.945,0,0,0,14.174,13.71,14.386,14.386,0,0,0,7.157-1.891Z" transform="translate(-592.341 -231.015)" fill="#8200ff"/>
            </g>
            <g id="그룹_13607" data-name="그룹 13607" transform="translate(31.806 18.054)">
              <rect id="사각형_6189" data-name="사각형 6189" width="5.661" height="1.372" fill="#e0bfff"/>
              <rect id="사각형_6190" data-name="사각형 6190" width="5.661" height="1.372" transform="translate(0 2.177)" fill="#c080ff"/>
              <rect id="사각형_6191" data-name="사각형 6191" width="5.661" height="1.372" transform="translate(0 4.354)" fill="#a140ff"/>
              <rect id="사각형_6192" data-name="사각형 6192" width="5.661" height="1.372" transform="translate(0 6.531)" fill="#8200ff"/>
            </g>
            <g id="그룹_13608" data-name="그룹 13608" transform="translate(38.569 18.054)">
              <rect id="사각형_6193" data-name="사각형 6193" width="14.658" height="1.372" fill="#eee"/>
              <rect id="사각형_6194" data-name="사각형 6194" width="14.658" height="1.372" transform="translate(0 2.177)" fill="#eee"/>
              <rect id="사각형_6195" data-name="사각형 6195" width="14.658" height="1.372" transform="translate(0 4.354)" fill="#eee"/>
              <rect id="사각형_6196" data-name="사각형 6196" width="14.658" height="1.372" transform="translate(0 6.531)" fill="#eee"/>
            </g>
          </g>
          <rect id="사각형_6197" data-name="사각형 6197" width="57.885" height="0.665" transform="translate(4.743 44.816)" opacity="0.5" fill="url(#linear-gradient)"/>
          <g id="그룹_13610" data-name="그룹 13610" transform="translate(6.679 52.273)">
            <path id="패스_28743" data-name="패스 28743" d="M616.154,297.958h1v-3.091h-.78l-.011-.015-.023.015h-2.382v.964h.927l-8.054,5.335-5.969-3.948-9.183,6.552.74.97,8.471-6.044,5.942,3.93,9.325-6.178v1.509" transform="translate(-591.677 -294.852)" fill="url(#linear-gradient)"/>
            <rect id="사각형_6198" data-name="사각형 6198" width="23.197" height="1.326" transform="translate(30.815 3.235)" fill="#eee"/>
            <rect id="사각형_6199" data-name="사각형 6199" width="23.197" height="1.326" transform="translate(30.815 5.492)" fill="#eee"/>
            <rect id="사각형_6200" data-name="사각형 6200" width="23.197" height="1.326" transform="translate(30.815 7.749)" fill="#eee"/>
            <rect id="사각형_6201" data-name="사각형 6201" width="17.195" height="1.326" transform="translate(30.815 10.006)" fill="#eee"/>
          </g>
        </g>
      </g>
    </g>
  </g>
</svg>
