<svg xmlns="http://www.w3.org/2000/svg" xmlns:xlink="http://www.w3.org/1999/xlink" width="128" height="128" viewBox="0 0 128 128">
  <defs>
    <linearGradient id="linear-gradient" y1="0.5" x2="1" y2="0.5" gradientUnits="objectBoundingBox">
      <stop offset="0" stop-color="#8200ff"/>
      <stop offset="0.089" stop-color="#8502f8"/>
      <stop offset="0.216" stop-color="#8e09e5"/>
      <stop offset="0.367" stop-color="#9e14c5"/>
      <stop offset="0.537" stop-color="#b3239a"/>
      <stop offset="0.721" stop-color="#ce3762"/>
      <stop offset="0.915" stop-color="#ef4e1f"/>
      <stop offset="0.999" stop-color="#ff5a00"/>
      <stop offset="0.999" stop-color="#f8540d"/>
      <stop offset="0.999" stop-color="#f34f19"/>
      <stop offset="1" stop-color="#ef4c20"/>
      <stop offset="1" stop-color="#ef4c22"/>
    </linearGradient>
    <filter id="타원_15042" x="19.489" y="53.468" width="8.592" height="8.592" filterUnits="userSpaceOnUse">
      <feOffset input="SourceAlpha"/>
      <feGaussianBlur stdDeviation="0.971" result="blur"/>
      <feFlood flood-color="#5b54cf" flood-opacity="0.749"/>
      <feComposite operator="in" in2="blur"/>
      <feComposite in="SourceGraphic"/>
    </filter>
    <filter id="타원_15043" x="31.13" y="97.122" width="8.592" height="8.592" filterUnits="userSpaceOnUse">
      <feOffset input="SourceAlpha"/>
      <feGaussianBlur stdDeviation="0.971" result="blur-2"/>
      <feFlood flood-color="#5b54cf" flood-opacity="0.749"/>
      <feComposite operator="in" in2="blur-2"/>
      <feComposite in="SourceGraphic"/>
    </filter>
    <filter id="타원_15044" x="109.182" y="77.51" width="8.592" height="8.592" filterUnits="userSpaceOnUse">
      <feOffset input="SourceAlpha"/>
      <feGaussianBlur stdDeviation="0.971" result="blur-3"/>
      <feFlood flood-color="#5b54cf" flood-opacity="0.749"/>
      <feComposite operator="in" in2="blur-3"/>
      <feComposite in="SourceGraphic"/>
    </filter>
    <clipPath id="clip-Solution_1">
      <rect width="128" height="128"/>
    </clipPath>
  </defs>
  <g id="Solution_1" clip-path="url(#clip-Solution_1)">
    <g id="그룹_13614" data-name="그룹 13614" transform="translate(13 18)">
      <path id="패스_28728" data-name="패스 28728" d="M181.34,310.842q-1.586,0-3.2-.066c-10.923-.45-21.131-3.212-28.744-7.777-8.042-4.822-12.321-11.126-12.048-17.75s5.056-12.554,13.469-16.7c7.963-3.923,18.361-5.834,29.286-5.384,23.425.967,41.342,12.179,40.792,25.528h0C220.369,301.428,203.251,310.842,181.34,310.842Zm-4.386-43.156c-9.065,0-17.537,1.737-24.114,4.977-6.838,3.369-10.714,7.905-10.915,12.775s3.289,9.711,9.826,13.63c6.967,4.178,16.405,6.709,26.576,7.129,20.16.838,37.558-7.27,37.988-17.691s-16.24-19.927-36.4-20.759Q178.426,267.685,176.954,267.685Z" transform="translate(-128.194 -227.956)" opacity="0.5" fill="url(#linear-gradient)"/>
      <ellipse id="타원_15041" data-name="타원 15041" cx="30.528" cy="49.707" rx="30.528" ry="49.707" transform="matrix(0.041, -0.999, 0.999, 0.041, 0, 87.555)" fill="none" stroke="#8200ff" stroke-miterlimit="10" stroke-width="1"/>
      <g transform="matrix(1, 0, 0, 1, -13, -18)" filter="url(#타원_15042)">
        <circle id="타원_15042-2" data-name="타원 15042" cx="1.383" cy="1.383" r="1.383" transform="translate(22.4 56.38)" fill="#8200ff"/>
      </g>
      <g transform="matrix(1, 0, 0, 1, -13, -18)" filter="url(#타원_15043)">
        <circle id="타원_15043-2" data-name="타원 15043" cx="1.383" cy="1.383" r="1.383" transform="translate(34.04 100.03)" fill="#8200ff"/>
      </g>
      <g transform="matrix(1, 0, 0, 1, -13, -18)" filter="url(#타원_15044)">
        <circle id="타원_15044-2" data-name="타원 15044" cx="1.383" cy="1.383" r="1.383" transform="translate(112.1 80.42)" fill="#8200ff"/>
      </g>
      <g id="그룹_13587" data-name="그룹 13587" transform="translate(22.605 0)">
        <path id="패스_28729" data-name="패스 28729" d="M187.924,284.967l29.269-13.892-28.03-16.152-29.758,13.82Z" transform="translate(-159.405 -224.767)" fill="#8200ff"/>
        <path id="패스_28730" data-name="패스 28730" d="M237.455,221.754,236.216,251.8l-28.03-16.152,1-30.156Z" transform="translate(-178.428 -205.49)" fill="#d9b2ff"/>
        <path id="패스_28731" data-name="패스 28731" d="M160.647,219.371l29.515-13.881-1,30.156-29.758,13.82Z" transform="translate(-159.405 -205.49)" fill="#a94fff"/>
      </g>
    </g>
  </g>
</svg>
