<svg xmlns="http://www.w3.org/2000/svg" xmlns:xlink="http://www.w3.org/1999/xlink" width="128" height="128" viewBox="0 0 128 128">
  <defs>
    <linearGradient id="linear-gradient" y1="0.5" x2="1" y2="0.5" gradientUnits="objectBoundingBox">
      <stop offset="0" stop-color="#8200ff"/>
      <stop offset="0.089" stop-color="#8502f8"/>
      <stop offset="0.216" stop-color="#8e09e5"/>
      <stop offset="0.367" stop-color="#9e14c5"/>
      <stop offset="0.537" stop-color="#b3239a"/>
      <stop offset="0.721" stop-color="#ce3762"/>
      <stop offset="0.915" stop-color="#ef4e1f"/>
      <stop offset="0.999" stop-color="#ff5a00"/>
      <stop offset="0.999" stop-color="#f8540d"/>
      <stop offset="0.999" stop-color="#f34f19"/>
      <stop offset="1" stop-color="#ef4c20"/>
      <stop offset="1" stop-color="#ef4c22"/>
    </linearGradient>
    <clipPath id="clip-Solution_2">
      <rect width="128" height="128"/>
    </clipPath>
  </defs>
  <g id="Solution_2" clip-path="url(#clip-Solution_2)">
    <g id="그룹_13615" data-name="그룹 13615" transform="translate(20 16)">
      <g id="그룹_13594" data-name="그룹 13594" transform="translate(4.657 4.816)">
        <g id="그룹_13590" data-name="그룹 13590" transform="translate(0 0)">
          <rect id="사각형_6164" data-name="사각형 6164" width="53.036" height="78.097" transform="translate(78.097 0) rotate(90)" fill="none" stroke="#8200ff" stroke-miterlimit="10" stroke-width="1"/>
          <g id="그룹_13589" data-name="그룹 13589" transform="translate(4.147 3.866)">
            <ellipse id="타원_15045" data-name="타원 15045" cx="0.811" cy="0.836" rx="0.811" ry="0.836" fill="#8200ff"/>
            <ellipse id="타원_15046" data-name="타원 15046" cx="0.811" cy="0.836" rx="0.811" ry="0.836" transform="translate(3.243)" fill="#8200ff"/>
            <ellipse id="타원_15047" data-name="타원 15047" cx="0.811" cy="0.836" rx="0.811" ry="0.836" transform="translate(6.487)" fill="#8200ff"/>
          </g>
        </g>
        <g id="그룹_13593" data-name="그룹 13593" transform="translate(23.002 10.722)">
          <g id="그룹_13591" data-name="그룹 13591" transform="translate(2.182)">
            <path id="패스_28732" data-name="패스 28732" d="M401.065,252.154a9.911,9.911,0,1,1,9.911-9.911A9.923,9.923,0,0,1,401.065,252.154Zm0-17.463a7.551,7.551,0,1,0,7.551,7.551A7.56,7.56,0,0,0,401.065,234.692Z" transform="translate(-386.237 -227.416)" fill="url(#linear-gradient)"/>
            <path id="패스_28733" data-name="패스 28733" d="M397.648,253.653a14.827,14.827,0,1,1,14.827-14.827A14.844,14.844,0,0,1,397.648,253.653Zm0-27.295a12.467,12.467,0,1,0,12.467,12.467A12.482,12.482,0,0,0,397.648,226.359Z" transform="translate(-382.82 -223.999)" opacity="0.5" fill="url(#linear-gradient)"/>
          </g>
          <g id="그룹_13592" data-name="그룹 13592" transform="translate(0 12.324)">
            <path id="패스_28734" data-name="패스 28734" d="M413.527,268.067v-3.916a3.477,3.477,0,0,1,.784-2.336,3.021,3.021,0,0,1,2.364-.96,3.18,3.18,0,0,1,3.367,3.3v18.221a16.856,16.856,0,0,1-.636,4.481c-1,3.648-2.819,7.279-2.972,10.619a22.631,22.631,0,0,0,.132,3.707l.005.033a2.729,2.729,0,0,1-1.486,2.693c-1.7.938-3.588.954-8.809.954-5.528,0-6.794-.559-8.258-1.607a2.735,2.735,0,0,1-1.212-2.221v-.017a13.822,13.822,0,0,0-.488-3.143c-.85-2.836-2.306-3.718-4.8-7.135-1.9-2.605-2.654-8.3-4.108-10.7L380,271.347c-1.1-1.333-1.445-3.184.6-4.877,1.9-1.569,3.731-.4,4.6.33l8.414,8.035V248.207a3.316,3.316,0,0,1,6.631-.115v19.975h.005l-.005-8.235a3.318,3.318,0,0,1,3.318-3.318h0a3.319,3.319,0,0,1,3.318,3.318l0,8.235V261.9a3.318,3.318,0,1,1,6.637,0v6.164Z" transform="translate(-379.122 -244.889)" fill="#ffc8bb"/>
            <rect id="사각형_6165" data-name="사각형 6165" width="25.082" height="12.236" rx="3.376" transform="translate(15.156 55.859)" fill="#8200ff"/>
            <circle id="타원_15048" data-name="타원 15048" cx="0.892" cy="0.892" r="0.892" transform="translate(35.965 59.187)" fill="#fff"/>
          </g>
        </g>
      </g>
      <g id="그룹_13598" data-name="그룹 13598" transform="translate(0 31.78)">
        <rect id="사각형_6166" data-name="사각형 6166" width="21.351" height="31.245" fill="#fde4de"/>
        <rect id="사각형_6167" data-name="사각형 6167" width="4.992" height="4.992" transform="translate(2.955 5.064)" fill="#ef4c22"/>
        <rect id="사각형_6168" data-name="사각형 6168" width="4.992" height="4.992" transform="translate(2.955 13.198)" fill="#ef4c22"/>
        <rect id="사각형_6169" data-name="사각형 6169" width="4.992" height="4.992" transform="translate(2.955 21.352)" fill="#ef4c22"/>
        <g id="그룹_13595" data-name="그룹 13595" transform="translate(9.985 5.895)">
          <line id="선_3494" data-name="선 3494" x2="8.529" fill="none" stroke="#ef4c22" stroke-miterlimit="10" stroke-width="1"/>
          <line id="선_3495" data-name="선 3495" x2="8.529" transform="translate(0 1.716)" fill="none" stroke="#ef4c22" stroke-miterlimit="10" stroke-width="1"/>
          <line id="선_3496" data-name="선 3496" x2="8.529" transform="translate(0 3.432)" fill="none" stroke="#ef4c22" stroke-miterlimit="10" stroke-width="1"/>
        </g>
        <g id="그룹_13596" data-name="그룹 13596" transform="translate(9.985 13.799)">
          <line id="선_3497" data-name="선 3497" x2="8.529" fill="none" stroke="#ef4c22" stroke-miterlimit="10" stroke-width="1"/>
          <line id="선_3498" data-name="선 3498" x2="8.529" transform="translate(0 1.716)" fill="none" stroke="#ef4c22" stroke-miterlimit="10" stroke-width="1"/>
          <line id="선_3499" data-name="선 3499" x2="8.529" transform="translate(0 3.432)" fill="none" stroke="#ef4c22" stroke-miterlimit="10" stroke-width="1"/>
        </g>
        <g id="그룹_13597" data-name="그룹 13597" transform="translate(9.985 22.173)">
          <line id="선_3500" data-name="선 3500" x2="8.529" fill="none" stroke="#ef4c22" stroke-miterlimit="10" stroke-width="1"/>
          <line id="선_3501" data-name="선 3501" x2="8.529" transform="translate(0 1.716)" fill="none" stroke="#ef4c22" stroke-miterlimit="10" stroke-width="1"/>
          <line id="선_3502" data-name="선 3502" x2="8.529" transform="translate(0 3.432)" fill="none" stroke="#ef4c22" stroke-miterlimit="10" stroke-width="1"/>
        </g>
      </g>
      <g id="그룹_13601" data-name="그룹 13601" transform="translate(66.579 0)">
        <rect id="사각형_6170" data-name="사각형 6170" width="21.295" height="29.54" transform="translate(21.295 29.54) rotate(180)" fill="#8200ff"/>
        <g id="그룹_13599" data-name="그룹 13599" transform="translate(3.475 4.07)">
          <rect id="사각형_6171" data-name="사각형 6171" width="11.02" height="14.376" transform="translate(14.376 0) rotate(90)" fill="#fff"/>
        </g>
        <g id="그룹_13600" data-name="그룹 13600" transform="translate(3.579 17.088)">
          <line id="선_3503" data-name="선 3503" x2="14.391" fill="none" stroke="#fff" stroke-miterlimit="10" stroke-width="1"/>
          <line id="선_3504" data-name="선 3504" x2="14.391" transform="translate(0 6.139)" fill="none" stroke="#fff" stroke-miterlimit="10" stroke-width="1"/>
          <line id="선_3505" data-name="선 3505" x2="9.615" transform="translate(0 8.185)" fill="none" stroke="#fff" stroke-miterlimit="10" stroke-width="1"/>
          <line id="선_3506" data-name="선 3506" x2="14.391" transform="translate(0 2.046)" fill="none" stroke="#fff" stroke-miterlimit="10" stroke-width="1"/>
          <line id="선_3507" data-name="선 3507" x2="14.391" transform="translate(0 4.093)" fill="none" stroke="#fff" stroke-miterlimit="10" stroke-width="1"/>
        </g>
      </g>
    </g>
  </g>
</svg>
