<svg xmlns="http://www.w3.org/2000/svg" xmlns:xlink="http://www.w3.org/1999/xlink" width="45.574" height="31.902" viewBox="0 0 45.574 31.902">
  <defs>
    <linearGradient id="linear-gradient" y1="0.5" x2="1" y2="0.5" gradientUnits="objectBoundingBox">
      <stop offset="0" stop-color="#8200ff"/>
      <stop offset="0.089" stop-color="#8502f8"/>
      <stop offset="0.216" stop-color="#8e09e5"/>
      <stop offset="0.367" stop-color="#9e14c5"/>
      <stop offset="0.537" stop-color="#b3239a"/>
      <stop offset="0.721" stop-color="#ce3762"/>
      <stop offset="0.915" stop-color="#ef4e1f"/>
      <stop offset="0.999" stop-color="#ff5a00"/>
      <stop offset="0.999" stop-color="#f8540d"/>
      <stop offset="0.999" stop-color="#f34f19"/>
      <stop offset="1" stop-color="#ef4c20"/>
      <stop offset="1" stop-color="#ef4c22"/>
    </linearGradient>
  </defs>
  <path id="패스_28725" data-name="패스 28725" d="M1468.34,582.168c-5.332,0-15.951,2.666-15.951,7.976v3.988h31.9v-3.988C1484.291,584.834,1473.672,582.168,1468.34,582.168Zm-10.619,7.406a21.214,21.214,0,0,1,21.238,0Zm10.619-11.394a7.976,7.976,0,1,0-7.976-7.976A7.984,7.984,0,0,0,1468.34,578.18Zm0-11.394a3.418,3.418,0,1,1-3.418,3.418A3.414,3.414,0,0,1,1468.34,566.786Zm16.042,15.519c2.644,1.914,4.467,4.466,4.467,7.839v3.988h9.115v-3.988C1497.963,585.541,1489.988,582.92,1484.382,582.3Zm-2.37-4.125a7.976,7.976,0,1,0,0-15.951,7.853,7.853,0,0,0-3.418.8,12.445,12.445,0,0,1,0,14.356A7.851,7.851,0,0,0,1482.012,578.18Z" transform="translate(-1452.389 -562.229)" fill="url(#linear-gradient)"/>
</svg>
