<svg id="그룹_13548" data-name="그룹 13548" xmlns="http://www.w3.org/2000/svg" xmlns:xlink="http://www.w3.org/1999/xlink" width="46.077" height="41.316" viewBox="0 0 46.077 41.316">
  <defs>
    <linearGradient id="linear-gradient" y1="0.5" x2="1" y2="0.5" gradientUnits="objectBoundingBox">
      <stop offset="0" stop-color="#8200ff"/>
      <stop offset="0.089" stop-color="#8502f8"/>
      <stop offset="0.216" stop-color="#8e09e5"/>
      <stop offset="0.367" stop-color="#9e14c5"/>
      <stop offset="0.537" stop-color="#b3239a"/>
      <stop offset="0.721" stop-color="#ce3762"/>
      <stop offset="0.915" stop-color="#ef4e1f"/>
      <stop offset="0.999" stop-color="#ff5a00"/>
      <stop offset="0.999" stop-color="#f8540d"/>
      <stop offset="0.999" stop-color="#f34f19"/>
      <stop offset="1" stop-color="#ef4c20"/>
      <stop offset="1" stop-color="#ef4c22"/>
    </linearGradient>
  </defs>
  <path id="패스_28723" data-name="패스 28723" d="M948.185,571.962c-3.461-.88-4.576-1.839-4.576-3.266,0-1.643,1.545-2.8,4.107-2.8,2.7,0,3.715,1.291,3.794,3.207h3.344a6.068,6.068,0,0,0-4.87-5.808v-3.344h-4.556v3.305c-2.953.625-5.319,2.542-5.319,5.5,0,3.5,2.913,5.26,7.157,6.277,3.814.9,4.576,2.249,4.576,3.657,0,1.037-.763,2.718-4.107,2.718-3.129,0-4.361-1.408-4.537-3.207h-3.364c.2,3.325,2.66,5.2,5.593,5.808v3.325H950v-3.266c2.972-.567,5.319-2.269,5.339-5.417C955.324,574.348,951.627,572.862,948.185,571.962Z" transform="translate(-926.931 -552.986)" fill="url(#linear-gradient)"/>
  <path id="패스_28724" data-name="패스 28724" d="M963.129,572.434l-2.749,2.747.014-5.9a19.763,19.763,0,0,0-.92-6.366A20.611,20.611,0,0,0,938.082,548.9a20.92,20.92,0,0,0-18.842,19.715,20.662,20.662,0,0,0,30.64,18.945l.316-.175-1.519-2.74-.316.175a17.536,17.536,0,0,1-26-15.954,17.718,17.718,0,0,1,17.239-16.908,17.464,17.464,0,0,1,16.9,11.95,16.93,16.93,0,0,1,.782,5.37l.014,5.9-2.8-2.8-2.169,2.183,6.513,6.512,6.459-6.47Z" transform="translate(-919.222 -548.822)" fill="url(#linear-gradient)"/>
</svg>
